<svg id="visual" viewBox="0 0 1360 768" width="1360" height="768" xmlns="http://www.w3.org/2000/svg" xmlns:xlink="http://www.w3.org/1999/xlink" version="1.1"><rect x="0" y="0" width="1360" height="768" fill="#000000"></rect><path d="M0 555L59 538L118 550L177 556L237 552L296 562L355 542L414 570L473 552L532 556L591 556L650 541L710 558L769 543L828 540L887 567L946 554L1005 537L1064 551L1123 561L1183 564L1242 540L1301 537L1360 549L1360 769L1301 769L1242 769L1183 769L1123 769L1064 769L1005 769L946 769L887 769L828 769L769 769L710 769L650 769L591 769L532 769L473 769L414 769L355 769L296 769L237 769L177 769L118 769L59 769L0 769Z" fill="#36b796"></path><path d="M0 565L59 563L118 561L177 559L237 557L296 562L355 575L414 555L473 572L532 567L591 588L650 584L710 590L769 556L828 560L887 565L946 557L1005 578L1064 556L1123 556L1183 560L1242 564L1301 570L1360 579L1360 769L1301 769L1242 769L1183 769L1123 769L1064 769L1005 769L946 769L887 769L828 769L769 769L710 769L650 769L591 769L532 769L473 769L414 769L355 769L296 769L237 769L177 769L118 769L59 769L0 769Z" fill="#2fb190"></path><path d="M0 593L59 590L118 579L177 586L237 592L296 591L355 575L414 599L473 578L532 597L591 583L650 573L710 596L769 585L828 582L887 587L946 574L1005 591L1064 601L1123 590L1183 592L1242 581L1301 575L1360 586L1360 769L1301 769L1242 769L1183 769L1123 769L1064 769L1005 769L946 769L887 769L828 769L769 769L710 769L650 769L591 769L532 769L473 769L414 769L355 769L296 769L237 769L177 769L118 769L59 769L0 769Z" fill="#28aa89"></path><path d="M0 594L59 602L118 606L177 625L237 615L296 606L355 606L414 615L473 611L532 608L591 621L650 622L710 597L769 613L828 625L887 609L946 603L1005 595L1064 614L1123 609L1183 603L1242 623L1301 603L1360 590L1360 769L1301 769L1242 769L1183 769L1123 769L1064 769L1005 769L946 769L887 769L828 769L769 769L710 769L650 769L591 769L532 769L473 769L414 769L355 769L296 769L237 769L177 769L118 769L59 769L0 769Z" fill="#1fa483"></path><path d="M0 626L59 610L118 613L177 625L237 609L296 636L355 612L414 632L473 627L532 611L591 610L650 636L710 610L769 618L828 639L887 638L946 615L1005 640L1064 631L1123 642L1183 622L1242 626L1301 635L1360 634L1360 769L1301 769L1242 769L1183 769L1123 769L1064 769L1005 769L946 769L887 769L828 769L769 769L710 769L650 769L591 769L532 769L473 769L414 769L355 769L296 769L237 769L177 769L118 769L59 769L0 769Z" fill="#169d7c"></path><path d="M0 649L59 630L118 641L177 635L237 644L296 653L355 644L414 632L473 629L532 650L591 648L650 627L710 634L769 659L828 634L887 654L946 652L1005 649L1064 637L1123 645L1183 633L1242 655L1301 649L1360 658L1360 769L1301 769L1242 769L1183 769L1123 769L1064 769L1005 769L946 769L887 769L828 769L769 769L710 769L650 769L591 769L532 769L473 769L414 769L355 769L296 769L237 769L177 769L118 769L59 769L0 769Z" fill="#089776"></path><path d="M0 675L59 671L118 670L177 653L237 660L296 655L355 660L414 665L473 653L532 649L591 653L650 670L710 666L769 678L828 662L887 659L946 659L1005 644L1064 661L1123 661L1183 659L1242 674L1301 663L1360 656L1360 769L1301 769L1242 769L1183 769L1123 769L1064 769L1005 769L946 769L887 769L828 769L769 769L710 769L650 769L591 769L532 769L473 769L414 769L355 769L296 769L237 769L177 769L118 769L59 769L0 769Z" fill="#009070"></path><path d="M0 666L59 678L118 677L177 693L237 661L296 684L355 681L414 678L473 674L532 673L591 679L650 668L710 692L769 666L828 684L887 667L946 665L1005 695L1064 676L1123 689L1183 690L1242 695L1301 668L1360 665L1360 769L1301 769L1242 769L1183 769L1123 769L1064 769L1005 769L946 769L887 769L828 769L769 769L710 769L650 769L591 769L532 769L473 769L414 769L355 769L296 769L237 769L177 769L118 769L59 769L0 769Z" fill="#00896b"></path><path d="M0 702L59 702L118 690L177 702L237 701L296 701L355 700L414 711L473 705L532 711L591 696L650 686L710 714L769 705L828 689L887 681L946 708L1005 693L1064 712L1123 704L1183 693L1242 708L1301 685L1360 693L1360 769L1301 769L1242 769L1183 769L1123 769L1064 769L1005 769L946 769L887 769L828 769L769 769L710 769L650 769L591 769L532 769L473 769L414 769L355 769L296 769L237 769L177 769L118 769L59 769L0 769Z" fill="#008265"></path><path d="M0 701L59 707L118 709L177 729L237 723L296 713L355 731L414 701L473 708L532 696L591 721L650 729L710 718L769 707L828 702L887 726L946 701L1005 727L1064 696L1123 717L1183 720L1242 703L1301 722L1360 706L1360 769L1301 769L1242 769L1183 769L1123 769L1064 769L1005 769L946 769L887 769L828 769L769 769L710 769L650 769L591 769L532 769L473 769L414 769L355 769L296 769L237 769L177 769L118 769L59 769L0 769Z" fill="#007a60"></path><path d="M0 749L59 724L118 723L177 749L237 714L296 735L355 734L414 739L473 723L532 727L591 739L650 728L710 715L769 746L828 747L887 741L946 733L1005 721L1064 718L1123 724L1183 718L1242 735L1301 722L1360 740L1360 769L1301 769L1242 769L1183 769L1123 769L1064 769L1005 769L946 769L887 769L828 769L769 769L710 769L650 769L591 769L532 769L473 769L414 769L355 769L296 769L237 769L177 769L118 769L59 769L0 769Z" fill="#00735a"></path><path d="M0 738L59 764L118 749L177 766L237 746L296 739L355 736L414 737L473 765L532 741L591 759L650 751L710 745L769 746L828 759L887 740L946 735L1005 742L1064 762L1123 734L1183 734L1242 767L1301 747L1360 761L1360 769L1301 769L1242 769L1183 769L1123 769L1064 769L1005 769L946 769L887 769L828 769L769 769L710 769L650 769L591 769L532 769L473 769L414 769L355 769L296 769L237 769L177 769L118 769L59 769L0 769Z" fill="#006c55"></path></svg>