<svg id="visual" viewBox="0 0 1360 768" width="1360" height="768" xmlns="http://www.w3.org/2000/svg" xmlns:xlink="http://www.w3.org/1999/xlink" version="1.1"><rect x="0" y="0" width="1360" height="768" fill="#000000"></rect><path d="M0 211L59 228L118 216L177 210L237 214L296 204L355 224L414 196L473 214L532 210L591 210L650 225L710 208L769 223L828 226L887 199L946 212L1005 229L1064 215L1123 205L1183 202L1242 226L1301 229L1360 217L1360 0L1301 0L1242 0L1183 0L1123 0L1064 0L1005 0L946 0L887 0L828 0L769 0L710 0L650 0L591 0L532 0L473 0L414 0L355 0L296 0L237 0L177 0L118 0L59 0L0 0Z" fill="#36b796"></path><path d="M0 201L59 203L118 205L177 207L237 209L296 204L355 191L414 211L473 194L532 199L591 178L650 182L710 176L769 210L828 206L887 201L946 209L1005 188L1064 210L1123 210L1183 206L1242 202L1301 196L1360 187L1360 0L1301 0L1242 0L1183 0L1123 0L1064 0L1005 0L946 0L887 0L828 0L769 0L710 0L650 0L591 0L532 0L473 0L414 0L355 0L296 0L237 0L177 0L118 0L59 0L0 0Z" fill="#2fb190"></path><path d="M0 173L59 176L118 187L177 180L237 174L296 175L355 191L414 167L473 188L532 169L591 183L650 193L710 170L769 181L828 184L887 179L946 192L1005 175L1064 165L1123 176L1183 174L1242 185L1301 191L1360 180L1360 0L1301 0L1242 0L1183 0L1123 0L1064 0L1005 0L946 0L887 0L828 0L769 0L710 0L650 0L591 0L532 0L473 0L414 0L355 0L296 0L237 0L177 0L118 0L59 0L0 0Z" fill="#28aa89"></path><path d="M0 172L59 164L118 160L177 141L237 151L296 160L355 160L414 151L473 155L532 158L591 145L650 144L710 169L769 153L828 141L887 157L946 163L1005 171L1064 152L1123 157L1183 163L1242 143L1301 163L1360 176L1360 0L1301 0L1242 0L1183 0L1123 0L1064 0L1005 0L946 0L887 0L828 0L769 0L710 0L650 0L591 0L532 0L473 0L414 0L355 0L296 0L237 0L177 0L118 0L59 0L0 0Z" fill="#1fa483"></path><path d="M0 140L59 156L118 153L177 141L237 157L296 130L355 154L414 134L473 139L532 155L591 156L650 130L710 156L769 148L828 127L887 128L946 151L1005 126L1064 135L1123 124L1183 144L1242 140L1301 131L1360 132L1360 0L1301 0L1242 0L1183 0L1123 0L1064 0L1005 0L946 0L887 0L828 0L769 0L710 0L650 0L591 0L532 0L473 0L414 0L355 0L296 0L237 0L177 0L118 0L59 0L0 0Z" fill="#169d7c"></path><path d="M0 117L59 136L118 125L177 131L237 122L296 113L355 122L414 134L473 137L532 116L591 118L650 139L710 132L769 107L828 132L887 112L946 114L1005 117L1064 129L1123 121L1183 133L1242 111L1301 117L1360 108L1360 0L1301 0L1242 0L1183 0L1123 0L1064 0L1005 0L946 0L887 0L828 0L769 0L710 0L650 0L591 0L532 0L473 0L414 0L355 0L296 0L237 0L177 0L118 0L59 0L0 0Z" fill="#089776"></path><path d="M0 91L59 95L118 96L177 113L237 106L296 111L355 106L414 101L473 113L532 117L591 113L650 96L710 100L769 88L828 104L887 107L946 107L1005 122L1064 105L1123 105L1183 107L1242 92L1301 103L1360 110L1360 0L1301 0L1242 0L1183 0L1123 0L1064 0L1005 0L946 0L887 0L828 0L769 0L710 0L650 0L591 0L532 0L473 0L414 0L355 0L296 0L237 0L177 0L118 0L59 0L0 0Z" fill="#009070"></path><path d="M0 100L59 88L118 89L177 73L237 105L296 82L355 85L414 88L473 92L532 93L591 87L650 98L710 74L769 100L828 82L887 99L946 101L1005 71L1064 90L1123 77L1183 76L1242 71L1301 98L1360 101L1360 0L1301 0L1242 0L1183 0L1123 0L1064 0L1005 0L946 0L887 0L828 0L769 0L710 0L650 0L591 0L532 0L473 0L414 0L355 0L296 0L237 0L177 0L118 0L59 0L0 0Z" fill="#00896b"></path><path d="M0 64L59 64L118 76L177 64L237 65L296 65L355 66L414 55L473 61L532 55L591 70L650 80L710 52L769 61L828 77L887 85L946 58L1005 73L1064 54L1123 62L1183 73L1242 58L1301 81L1360 73L1360 0L1301 0L1242 0L1183 0L1123 0L1064 0L1005 0L946 0L887 0L828 0L769 0L710 0L650 0L591 0L532 0L473 0L414 0L355 0L296 0L237 0L177 0L118 0L59 0L0 0Z" fill="#008265"></path><path d="M0 65L59 59L118 57L177 37L237 43L296 53L355 35L414 65L473 58L532 70L591 45L650 37L710 48L769 59L828 64L887 40L946 65L1005 39L1064 70L1123 49L1183 46L1242 63L1301 44L1360 60L1360 0L1301 0L1242 0L1183 0L1123 0L1064 0L1005 0L946 0L887 0L828 0L769 0L710 0L650 0L591 0L532 0L473 0L414 0L355 0L296 0L237 0L177 0L118 0L59 0L0 0Z" fill="#007a60"></path><path d="M0 17L59 42L118 43L177 17L237 52L296 31L355 32L414 27L473 43L532 39L591 27L650 38L710 51L769 20L828 19L887 25L946 33L1005 45L1064 48L1123 42L1183 48L1242 31L1301 44L1360 26L1360 0L1301 0L1242 0L1183 0L1123 0L1064 0L1005 0L946 0L887 0L828 0L769 0L710 0L650 0L591 0L532 0L473 0L414 0L355 0L296 0L237 0L177 0L118 0L59 0L0 0Z" fill="#00735a"></path><path d="M0 28L59 2L118 17L177 0L237 20L296 27L355 30L414 29L473 1L532 25L591 7L650 15L710 21L769 20L828 7L887 26L946 31L1005 24L1064 4L1123 32L1183 32L1242 0L1301 19L1360 5L1360 0L1301 0L1242 0L1183 0L1123 0L1064 0L1005 0L946 0L887 0L828 0L769 0L710 0L650 0L591 0L532 0L473 0L414 0L355 0L296 0L237 0L177 0L118 0L59 0L0 0Z" fill="#006c55"></path></svg>