<svg id="visual" viewBox="0 0 1920 1080" width="1920" height="1080" xmlns="http://www.w3.org/2000/svg" xmlns:xlink="http://www.w3.org/1999/xlink" version="1.1"><rect x="0" y="0" width="1920" height="1080" fill="#000000"></rect><path d="M0 823L45.7 805.8C91.3 788.7 182.7 754.3 274.2 739.8C365.7 725.3 457.3 730.7 548.8 737.2C640.3 743.7 731.7 751.3 823 749.5C914.3 747.7 1005.7 736.3 1097 744.5C1188.3 752.7 1279.7 780.3 1371.2 787.8C1462.7 795.3 1554.3 782.7 1645.8 789.7C1737.3 796.7 1828.7 823.3 1874.3 836.7L1920 850L1920 1081L1874.3 1081C1828.7 1081 1737.3 1081 1645.8 1081C1554.3 1081 1462.7 1081 1371.2 1081C1279.7 1081 1188.3 1081 1097 1081C1005.7 1081 914.3 1081 823 1081C731.7 1081 640.3 1081 548.8 1081C457.3 1081 365.7 1081 274.2 1081C182.7 1081 91.3 1081 45.7 1081L0 1081Z" fill="#009473"></path><path d="M0 869L45.7 868.3C91.3 867.7 182.7 866.3 274.2 855.5C365.7 844.7 457.3 824.3 548.8 827.5C640.3 830.7 731.7 857.3 823 872.5C914.3 887.7 1005.7 891.3 1097 890.7C1188.3 890 1279.7 885 1371.2 880.8C1462.7 876.7 1554.3 873.3 1645.8 876.8C1737.3 880.3 1828.7 890.7 1874.3 895.8L1920 901L1920 1081L1874.3 1081C1828.7 1081 1737.3 1081 1645.8 1081C1554.3 1081 1462.7 1081 1371.2 1081C1279.7 1081 1188.3 1081 1097 1081C1005.7 1081 914.3 1081 823 1081C731.7 1081 640.3 1081 548.8 1081C457.3 1081 365.7 1081 274.2 1081C182.7 1081 91.3 1081 45.7 1081L0 1081Z" fill="#5eaf94"></path><path d="M0 934L45.7 928.7C91.3 923.3 182.7 912.7 274.2 902C365.7 891.3 457.3 880.7 548.8 872.7C640.3 864.7 731.7 859.3 823 860.2C914.3 861 1005.7 868 1097 868C1188.3 868 1279.7 861 1371.2 861.8C1462.7 862.7 1554.3 871.3 1645.8 883.7C1737.3 896 1828.7 912 1874.3 920L1920 928L1920 1081L1874.3 1081C1828.7 1081 1737.3 1081 1645.8 1081C1554.3 1081 1462.7 1081 1371.2 1081C1279.7 1081 1188.3 1081 1097 1081C1005.7 1081 914.3 1081 823 1081C731.7 1081 640.3 1081 548.8 1081C457.3 1081 365.7 1081 274.2 1081C182.7 1081 91.3 1081 45.7 1081L0 1081Z" fill="#96cab7"></path><path d="M0 952L45.7 956.3C91.3 960.7 182.7 969.3 274.2 967.2C365.7 965 457.3 952 548.8 954.7C640.3 957.3 731.7 975.7 823 981C914.3 986.3 1005.7 978.7 1097 964.8C1188.3 951 1279.7 931 1371.2 926.5C1462.7 922 1554.3 933 1645.8 933.5C1737.3 934 1828.7 924 1874.3 919L1920 914L1920 1081L1874.3 1081C1828.7 1081 1737.3 1081 1645.8 1081C1554.3 1081 1462.7 1081 1371.2 1081C1279.7 1081 1188.3 1081 1097 1081C1005.7 1081 914.3 1081 823 1081C731.7 1081 640.3 1081 548.8 1081C457.3 1081 365.7 1081 274.2 1081C182.7 1081 91.3 1081 45.7 1081L0 1081Z" fill="#cbe5da"></path><path d="M0 990L45.7 994.8C91.3 999.7 182.7 1009.3 274.2 1017.8C365.7 1026.3 457.3 1033.7 548.8 1036.8C640.3 1040 731.7 1039 823 1032.8C914.3 1026.7 1005.7 1015.3 1097 1013.8C1188.3 1012.3 1279.7 1020.7 1371.2 1018.8C1462.7 1017 1554.3 1005 1645.8 998.8C1737.3 992.7 1828.7 992.3 1874.3 992.2L1920 992L1920 1081L1874.3 1081C1828.7 1081 1737.3 1081 1645.8 1081C1554.3 1081 1462.7 1081 1371.2 1081C1279.7 1081 1188.3 1081 1097 1081C1005.7 1081 914.3 1081 823 1081C731.7 1081 640.3 1081 548.8 1081C457.3 1081 365.7 1081 274.2 1081C182.7 1081 91.3 1081 45.7 1081L0 1081Z" fill="#ffffff"></path></svg>