<svg id="visual" viewBox="0 0 1920 1080" width="1920" height="1080" xmlns="http://www.w3.org/2000/svg" xmlns:xlink="http://www.w3.org/1999/xlink" version="1.1"><g stroke-width="1" stroke-linejoin="bevel"><path d="M975 550L1002 569L1006 494Z" fill="#00331b" stroke="#00331b"></path><path d="M1002 569L1120 548L1006 494Z" fill="#004e33" stroke="#004e33"></path><path d="M954 645L1024 653L1002 569Z" fill="#00270f" stroke="#00270f"></path><path d="M1002 569L1024 653L1120 548Z" fill="#03694b" stroke="#03694b"></path><path d="M975 550L954 645L1002 569Z" fill="#001e00" stroke="#001e00"></path><path d="M887 378L893 440L1006 494Z" fill="#028565" stroke="#028565"></path><path d="M1006 494L893 440L975 550Z" fill="#00270f" stroke="#00270f"></path><path d="M975 550L843 575L954 645Z" fill="#009473" stroke="#009473"></path><path d="M1024 653L1109 661L1120 548Z" fill="#009473" stroke="#009473"></path><path d="M834 512L843 575L975 550Z" fill="#03694b" stroke="#03694b"></path><path d="M1109 661L1165 607L1120 548Z" fill="#00331b" stroke="#00331b"></path><path d="M893 440L834 512L975 550Z" fill="#00331b" stroke="#00331b"></path><path d="M1195 481L1092 373L1120 548Z" fill="#009473" stroke="#009473"></path><path d="M1120 548L1092 373L1006 494Z" fill="#00331b" stroke="#00331b"></path><path d="M1103 784L1130 681L1109 661Z" fill="#001e00" stroke="#001e00"></path><path d="M1109 661L1130 681L1165 607Z" fill="#004e33" stroke="#004e33"></path><path d="M1103 784L1109 661L1024 653Z" fill="#000000" stroke="#000000"></path><path d="M1165 607L1195 481L1120 548Z" fill="#004027" stroke="#004027"></path><path d="M1092 373L887 378L1006 494Z" fill="#025b3f" stroke="#025b3f"></path><path d="M893 440L887 378L834 512Z" fill="#001e00" stroke="#001e00"></path><path d="M892 728L988 747L954 645Z" fill="#004027" stroke="#004027"></path><path d="M954 645L988 747L1024 653Z" fill="#00270f" stroke="#00270f"></path><path d="M1195 481L1158 375L1092 373Z" fill="#037758" stroke="#037758"></path><path d="M1158 375L1124 345L1092 373Z" fill="#03694b" stroke="#03694b"></path><path d="M1092 373L941 296L887 378Z" fill="#03694b" stroke="#03694b"></path><path d="M834 671L864 699L954 645Z" fill="#000000" stroke="#000000"></path><path d="M1124 345L1098 329L1092 373Z" fill="#00331b" stroke="#00331b"></path><path d="M794 733L834 671L760 711Z" fill="#037758" stroke="#037758"></path><path d="M843 575L834 671L954 645Z" fill="#009473" stroke="#009473"></path><path d="M1195 481L1172 377L1158 375Z" fill="#00331b" stroke="#00331b"></path><path d="M1158 375L1211 304L1124 345Z" fill="#009473" stroke="#009473"></path><path d="M830 762L892 728L864 699Z" fill="#028565" stroke="#028565"></path><path d="M864 699L892 728L954 645Z" fill="#000000" stroke="#000000"></path><path d="M1327 498L1223 432L1195 481Z" fill="#000000" stroke="#000000"></path><path d="M1195 481L1223 432L1172 377Z" fill="#000000" stroke="#000000"></path><path d="M1098 329L941 296L1092 373Z" fill="#03694b" stroke="#03694b"></path><path d="M941 296L888 301L887 378Z" fill="#025b3f" stroke="#025b3f"></path><path d="M669 422L686 525L834 512Z" fill="#028565" stroke="#028565"></path><path d="M1130 681L1242 654L1165 607Z" fill="#03694b" stroke="#03694b"></path><path d="M1165 607L1264 632L1195 481Z" fill="#037758" stroke="#037758"></path><path d="M1260 841L1242 654L1130 681Z" fill="#00270f" stroke="#00270f"></path><path d="M1019 812L1103 784L988 747Z" fill="#000000" stroke="#000000"></path><path d="M988 747L1103 784L1024 653Z" fill="#001e00" stroke="#001e00"></path><path d="M941 296L899 282L888 301Z" fill="#037758" stroke="#037758"></path><path d="M939 232L899 282L941 296Z" fill="#037758" stroke="#037758"></path><path d="M1242 654L1264 632L1165 607Z" fill="#03694b" stroke="#03694b"></path><path d="M943 825L1019 812L988 747Z" fill="#025b3f" stroke="#025b3f"></path><path d="M794 733L830 762L864 699Z" fill="#009473" stroke="#009473"></path><path d="M892 728L943 825L988 747Z" fill="#004e33" stroke="#004e33"></path><path d="M794 733L864 699L834 671Z" fill="#009473" stroke="#009473"></path><path d="M760 711L834 671L843 575Z" fill="#00331b" stroke="#00331b"></path><path d="M998 148L987 234L1123 121Z" fill="#004027" stroke="#004027"></path><path d="M1098 329L987 234L941 296Z" fill="#000000" stroke="#000000"></path><path d="M1211 304L1098 329L1124 345Z" fill="#001e00" stroke="#001e00"></path><path d="M888 809L943 825L892 728Z" fill="#004e33" stroke="#004e33"></path><path d="M774 817L888 809L830 762Z" fill="#03694b" stroke="#03694b"></path><path d="M830 762L888 809L892 728Z" fill="#001e00" stroke="#001e00"></path><path d="M1316 693L1264 632L1242 654Z" fill="#004027" stroke="#004027"></path><path d="M1316 693L1299 614L1264 632Z" fill="#00331b" stroke="#00331b"></path><path d="M1264 632L1299 614L1195 481Z" fill="#028565" stroke="#028565"></path><path d="M1036 901L1046 833L1019 812Z" fill="#001e00" stroke="#001e00"></path><path d="M1019 812L1046 833L1103 784Z" fill="#00270f" stroke="#00270f"></path><path d="M1223 432L1211 304L1172 377Z" fill="#009473" stroke="#009473"></path><path d="M1172 377L1211 304L1158 375Z" fill="#00270f" stroke="#00270f"></path><path d="M1317 350L1211 304L1223 432Z" fill="#037758" stroke="#037758"></path><path d="M686 525L843 575L834 512Z" fill="#004027" stroke="#004027"></path><path d="M705 699L760 711L656 607Z" fill="#000000" stroke="#000000"></path><path d="M794 733L774 817L830 762Z" fill="#001e00" stroke="#001e00"></path><path d="M987 234L939 232L941 296Z" fill="#00270f" stroke="#00270f"></path><path d="M1046 833L1073 833L1103 784Z" fill="#03694b" stroke="#03694b"></path><path d="M1260 841L1316 693L1242 654Z" fill="#00331b" stroke="#00331b"></path><path d="M899 282L846 269L888 301Z" fill="#037758" stroke="#037758"></path><path d="M888 301L846 269L887 378Z" fill="#037758" stroke="#037758"></path><path d="M939 232L846 269L899 282Z" fill="#004027" stroke="#004027"></path><path d="M1299 614L1327 498L1195 481Z" fill="#004e33" stroke="#004e33"></path><path d="M669 422L834 512L887 378Z" fill="#00270f" stroke="#00270f"></path><path d="M656 607L760 711L843 575Z" fill="#037758" stroke="#037758"></path><path d="M760 711L713 745L794 733Z" fill="#028565" stroke="#028565"></path><path d="M1361 707L1316 693L1260 841Z" fill="#03694b" stroke="#03694b"></path><path d="M1518 531L1494 467L1327 498Z" fill="#03694b" stroke="#03694b"></path><path d="M711 318L669 422L887 378Z" fill="#004027" stroke="#004027"></path><path d="M686 525L656 607L843 575Z" fill="#037758" stroke="#037758"></path><path d="M1327 498L1317 350L1223 432Z" fill="#004e33" stroke="#004e33"></path><path d="M645 593L656 607L686 525Z" fill="#009473" stroke="#009473"></path><path d="M683 834L713 745L578 777Z" fill="#009473" stroke="#009473"></path><path d="M705 699L713 745L760 711Z" fill="#03694b" stroke="#03694b"></path><path d="M846 269L711 318L887 378Z" fill="#025b3f" stroke="#025b3f"></path><path d="M716 283L711 318L846 269Z" fill="#025b3f" stroke="#025b3f"></path><path d="M711 318L658 425L669 422Z" fill="#004e33" stroke="#004e33"></path><path d="M669 422L658 425L686 525Z" fill="#004e33" stroke="#004e33"></path><path d="M552 610L645 593L507 525Z" fill="#025b3f" stroke="#025b3f"></path><path d="M578 777L713 745L705 699Z" fill="#00270f" stroke="#00270f"></path><path d="M713 745L774 817L794 733Z" fill="#03694b" stroke="#03694b"></path><path d="M941 925L1036 901L943 825Z" fill="#037758" stroke="#037758"></path><path d="M943 825L1036 901L1019 812Z" fill="#037758" stroke="#037758"></path><path d="M941 925L943 825L888 809Z" fill="#03694b" stroke="#03694b"></path><path d="M1046 833L1036 901L1073 833Z" fill="#004027" stroke="#004027"></path><path d="M1260 841L1130 681L1103 784Z" fill="#001e00" stroke="#001e00"></path><path d="M836 183L846 269L939 232Z" fill="#009473" stroke="#009473"></path><path d="M836 183L816 214L846 269Z" fill="#001e00" stroke="#001e00"></path><path d="M816 214L716 283L846 269Z" fill="#009473" stroke="#009473"></path><path d="M711 318L629 242L658 425Z" fill="#000000" stroke="#000000"></path><path d="M1123 121L1098 329L1208 154Z" fill="#00270f" stroke="#00270f"></path><path d="M1123 121L987 234L1098 329Z" fill="#00331b" stroke="#00331b"></path><path d="M987 234L998 148L939 232Z" fill="#028565" stroke="#028565"></path><path d="M884 103L836 183L939 232Z" fill="#000000" stroke="#000000"></path><path d="M816 214L821 178L716 283Z" fill="#00270f" stroke="#00270f"></path><path d="M1415 427L1339 327L1317 350Z" fill="#001e00" stroke="#001e00"></path><path d="M1317 350L1339 327L1211 304Z" fill="#028565" stroke="#028565"></path><path d="M1415 427L1317 350L1327 498Z" fill="#028565" stroke="#028565"></path><path d="M1260 841L1103 784L1225 880Z" fill="#03694b" stroke="#03694b"></path><path d="M1316 693L1361 707L1299 614Z" fill="#009473" stroke="#009473"></path><path d="M1225 880L1103 784L1073 833Z" fill="#004e33" stroke="#004e33"></path><path d="M855 938L941 925L888 809Z" fill="#009473" stroke="#009473"></path><path d="M884 103L821 178L836 183Z" fill="#00331b" stroke="#00331b"></path><path d="M836 183L821 178L816 214Z" fill="#028565" stroke="#028565"></path><path d="M973 973L1085 929L1036 901Z" fill="#000000" stroke="#000000"></path><path d="M1036 901L1085 929L1073 833Z" fill="#00331b" stroke="#00331b"></path><path d="M1085 929L1225 880L1073 833Z" fill="#00270f" stroke="#00270f"></path><path d="M1435 432L1415 427L1327 498Z" fill="#001e00" stroke="#001e00"></path><path d="M1208 154L1098 329L1211 304Z" fill="#001e00" stroke="#001e00"></path><path d="M998 148L884 103L939 232Z" fill="#03694b" stroke="#03694b"></path><path d="M1325 158L1208 154L1211 304Z" fill="#004027" stroke="#004027"></path><path d="M1204 139L1208 154L1325 158Z" fill="#000000" stroke="#000000"></path><path d="M774 817L855 938L888 809Z" fill="#004e33" stroke="#004e33"></path><path d="M941 925L973 973L1036 901Z" fill="#004027" stroke="#004027"></path><path d="M730 1024L855 938L774 817Z" fill="#025b3f" stroke="#025b3f"></path><path d="M1494 467L1435 432L1327 498Z" fill="#00270f" stroke="#00270f"></path><path d="M1415 427L1450 423L1339 327Z" fill="#025b3f" stroke="#025b3f"></path><path d="M1325 158L1211 304L1339 327Z" fill="#028565" stroke="#028565"></path><path d="M1208 154L1204 139L1123 121Z" fill="#028565" stroke="#028565"></path><path d="M855 938L973 973L941 925Z" fill="#00270f" stroke="#00270f"></path><path d="M1085 929L1096 980L1225 880Z" fill="#004027" stroke="#004027"></path><path d="M538 723L705 699L656 607Z" fill="#037758" stroke="#037758"></path><path d="M713 745L683 834L774 817Z" fill="#009473" stroke="#009473"></path><path d="M967 60L884 103L998 148Z" fill="#03694b" stroke="#03694b"></path><path d="M821 178L629 242L716 283Z" fill="#004027" stroke="#004027"></path><path d="M1494 467L1450 423L1435 432Z" fill="#00270f" stroke="#00270f"></path><path d="M1435 432L1450 423L1415 427Z" fill="#000000" stroke="#000000"></path><path d="M973 973L1096 980L1085 929Z" fill="#037758" stroke="#037758"></path><path d="M1402 776L1361 707L1260 841Z" fill="#037758" stroke="#037758"></path><path d="M1402 776L1402 769L1361 707Z" fill="#004027" stroke="#004027"></path><path d="M1518 531L1327 498L1299 614Z" fill="#00331b" stroke="#00331b"></path><path d="M1402 776L1260 841L1403 921Z" fill="#00270f" stroke="#00270f"></path><path d="M526 470L645 593L686 525Z" fill="#001e00" stroke="#001e00"></path><path d="M645 593L552 610L656 607Z" fill="#028565" stroke="#028565"></path><path d="M526 470L686 525L658 425Z" fill="#03694b" stroke="#03694b"></path><path d="M1466 757L1402 776L1498 878Z" fill="#000000" stroke="#000000"></path><path d="M1518 531L1299 614L1527 613Z" fill="#00270f" stroke="#00270f"></path><path d="M1123 121L967 60L998 148Z" fill="#009473" stroke="#009473"></path><path d="M940 0L967 60L1113 0Z" fill="#00331b" stroke="#00331b"></path><path d="M601 160L629 242L821 178Z" fill="#037758" stroke="#037758"></path><path d="M716 283L629 242L711 318Z" fill="#037758" stroke="#037758"></path><path d="M510 416L526 470L658 425Z" fill="#004027" stroke="#004027"></path><path d="M429 577L535 645L552 610Z" fill="#03694b" stroke="#03694b"></path><path d="M552 610L535 645L656 607Z" fill="#025b3f" stroke="#025b3f"></path><path d="M1391 219L1325 158L1339 327Z" fill="#037758" stroke="#037758"></path><path d="M1132 0L1113 0L1123 121Z" fill="#004027" stroke="#004027"></path><path d="M1299 614L1361 707L1527 613Z" fill="#004027" stroke="#004027"></path><path d="M1450 423L1391 219L1339 327Z" fill="#025b3f" stroke="#025b3f"></path><path d="M1397 179L1391 219L1486 161Z" fill="#037758" stroke="#037758"></path><path d="M538 723L578 777L705 699Z" fill="#037758" stroke="#037758"></path><path d="M913 1080L973 973L855 938Z" fill="#001e00" stroke="#001e00"></path><path d="M526 470L507 525L645 593Z" fill="#025b3f" stroke="#025b3f"></path><path d="M535 645L538 723L656 607Z" fill="#000000" stroke="#000000"></path><path d="M450 723L538 723L535 645Z" fill="#000000" stroke="#000000"></path><path d="M1466 757L1361 707L1402 769Z" fill="#00331b" stroke="#00331b"></path><path d="M1403 921L1260 841L1394 942Z" fill="#009473" stroke="#009473"></path><path d="M1402 776L1466 757L1402 769Z" fill="#004027" stroke="#004027"></path><path d="M526 470L482 474L507 525Z" fill="#025b3f" stroke="#025b3f"></path><path d="M551 261L510 416L658 425Z" fill="#00331b" stroke="#00331b"></path><path d="M1518 531L1522 498L1494 467Z" fill="#000000" stroke="#000000"></path><path d="M1425 117L1397 179L1486 161Z" fill="#00270f" stroke="#00270f"></path><path d="M1391 219L1587 345L1486 161Z" fill="#000000" stroke="#000000"></path><path d="M1391 219L1397 179L1325 158Z" fill="#009473" stroke="#009473"></path><path d="M1538 681L1527 613L1361 707Z" fill="#03694b" stroke="#03694b"></path><path d="M1518 531L1600 513L1522 498Z" fill="#00331b" stroke="#00331b"></path><path d="M510 416L482 474L526 470Z" fill="#037758" stroke="#037758"></path><path d="M507 525L429 577L552 610Z" fill="#00331b" stroke="#00331b"></path><path d="M1397 179L1336 114L1325 158Z" fill="#00331b" stroke="#00331b"></path><path d="M1325 158L1336 114L1204 139Z" fill="#004027" stroke="#004027"></path><path d="M601 160L551 261L629 242Z" fill="#00270f" stroke="#00270f"></path><path d="M629 242L551 261L658 425Z" fill="#03694b" stroke="#03694b"></path><path d="M510 416L468 400L482 474Z" fill="#009473" stroke="#009473"></path><path d="M601 160L821 178L724 35Z" fill="#004027" stroke="#004027"></path><path d="M1113 0L967 60L1123 121Z" fill="#03694b" stroke="#03694b"></path><path d="M967 60L940 0L884 103Z" fill="#001e00" stroke="#001e00"></path><path d="M1132 0L1123 121L1204 139Z" fill="#009473" stroke="#009473"></path><path d="M1281 0L1132 0L1204 139Z" fill="#037758" stroke="#037758"></path><path d="M1151 1080L1181 1050L1096 980Z" fill="#004e33" stroke="#004e33"></path><path d="M1096 980L1181 1050L1225 880Z" fill="#03694b" stroke="#03694b"></path><path d="M997 1080L1096 980L973 973Z" fill="#004e33" stroke="#004e33"></path><path d="M913 1080L855 938L781 1080Z" fill="#03694b" stroke="#03694b"></path><path d="M913 1080L997 1080L973 973Z" fill="#028565" stroke="#028565"></path><path d="M1466 757L1538 681L1361 707Z" fill="#001e00" stroke="#001e00"></path><path d="M1527 613L1600 513L1518 531Z" fill="#001e00" stroke="#001e00"></path><path d="M724 35L821 178L884 103Z" fill="#001e00" stroke="#001e00"></path><path d="M997 1080L1077 1080L1096 980Z" fill="#000000" stroke="#000000"></path><path d="M1394 942L1260 841L1225 880Z" fill="#028565" stroke="#028565"></path><path d="M1592 723L1569 668L1538 681Z" fill="#004027" stroke="#004027"></path><path d="M437 427L468 400L425 366Z" fill="#00270f" stroke="#00270f"></path><path d="M551 261L468 400L510 416Z" fill="#004027" stroke="#004027"></path><path d="M730 1024L774 817L683 834Z" fill="#037758" stroke="#037758"></path><path d="M1387 988L1394 942L1225 880Z" fill="#028565" stroke="#028565"></path><path d="M1592 723L1538 681L1466 757Z" fill="#03694b" stroke="#03694b"></path><path d="M604 950L683 834L578 777Z" fill="#025b3f" stroke="#025b3f"></path><path d="M604 950L730 1024L683 834Z" fill="#025b3f" stroke="#025b3f"></path><path d="M1077 1080L1151 1080L1096 980Z" fill="#004027" stroke="#004027"></path><path d="M1262 1080L1387 988L1225 880Z" fill="#037758" stroke="#037758"></path><path d="M794 0L724 35L884 103Z" fill="#004e33" stroke="#004e33"></path><path d="M940 0L794 0L884 103Z" fill="#025b3f" stroke="#025b3f"></path><path d="M1498 878L1402 776L1403 921Z" fill="#009473" stroke="#009473"></path><path d="M1538 681L1569 668L1527 613Z" fill="#00270f" stroke="#00270f"></path><path d="M491 242L468 400L551 261Z" fill="#000000" stroke="#000000"></path><path d="M468 400L437 427L482 474Z" fill="#037758" stroke="#037758"></path><path d="M482 474L429 577L507 525Z" fill="#037758" stroke="#037758"></path><path d="M437 427L429 577L482 474Z" fill="#00331b" stroke="#00331b"></path><path d="M561 963L604 950L540 954Z" fill="#037758" stroke="#037758"></path><path d="M450 724L578 777L538 723Z" fill="#000000" stroke="#000000"></path><path d="M794 0L770 0L724 35Z" fill="#001e00" stroke="#001e00"></path><path d="M1397 179L1425 117L1336 114Z" fill="#001e00" stroke="#001e00"></path><path d="M1336 114L1281 0L1204 139Z" fill="#00270f" stroke="#00270f"></path><path d="M1391 219L1450 423L1587 345Z" fill="#00270f" stroke="#00270f"></path><path d="M1613 470L1494 467L1522 498Z" fill="#004027" stroke="#004027"></path><path d="M429 577L450 723L535 645Z" fill="#037758" stroke="#037758"></path><path d="M373 730L450 724L450 723Z" fill="#004e33" stroke="#004e33"></path><path d="M450 723L450 724L538 723Z" fill="#00270f" stroke="#00270f"></path><path d="M1646 647L1600 513L1527 613Z" fill="#004e33" stroke="#004e33"></path><path d="M489 214L551 261L601 160Z" fill="#00270f" stroke="#00270f"></path><path d="M489 214L491 242L551 261Z" fill="#009473" stroke="#009473"></path><path d="M1262 1080L1225 880L1181 1050Z" fill="#00270f" stroke="#00270f"></path><path d="M1473 918L1498 878L1403 921Z" fill="#009473" stroke="#009473"></path><path d="M730 1024L781 1080L855 938Z" fill="#025b3f" stroke="#025b3f"></path><path d="M629 1040L781 1080L730 1024Z" fill="#004027" stroke="#004027"></path><path d="M1332 0L1281 0L1336 114Z" fill="#025b3f" stroke="#025b3f"></path><path d="M1473 918L1403 921L1394 942Z" fill="#004e33" stroke="#004e33"></path><path d="M1151 1080L1262 1080L1181 1050Z" fill="#025b3f" stroke="#025b3f"></path><path d="M1387 988L1473 918L1394 942Z" fill="#000000" stroke="#000000"></path><path d="M1587 345L1450 423L1494 467Z" fill="#004027" stroke="#004027"></path><path d="M1412 43L1332 0L1336 114Z" fill="#025b3f" stroke="#025b3f"></path><path d="M491 242L425 366L468 400Z" fill="#004027" stroke="#004027"></path><path d="M321 501L373 647L429 577Z" fill="#001e00" stroke="#001e00"></path><path d="M1619 455L1793 478L1658 394Z" fill="#004027" stroke="#004027"></path><path d="M1600 513L1613 470L1522 498Z" fill="#009473" stroke="#009473"></path><path d="M1619 455L1587 345L1494 467Z" fill="#028565" stroke="#028565"></path><path d="M459 165L489 214L601 160Z" fill="#00270f" stroke="#00270f"></path><path d="M491 242L374 321L425 366Z" fill="#025b3f" stroke="#025b3f"></path><path d="M1600 735L1592 723L1466 757Z" fill="#037758" stroke="#037758"></path><path d="M1569 668L1646 647L1527 613Z" fill="#00270f" stroke="#00270f"></path><path d="M1619 455L1613 470L1793 478Z" fill="#000000" stroke="#000000"></path><path d="M1613 470L1619 455L1494 467Z" fill="#004e33" stroke="#004e33"></path><path d="M685 0L652 28L724 35Z" fill="#00270f" stroke="#00270f"></path><path d="M724 35L652 28L601 160Z" fill="#028565" stroke="#028565"></path><path d="M540 954L604 950L578 777Z" fill="#025b3f" stroke="#025b3f"></path><path d="M604 950L629 1040L730 1024Z" fill="#001e00" stroke="#001e00"></path><path d="M770 0L685 0L724 35Z" fill="#028565" stroke="#028565"></path><path d="M1412 43L1336 114L1425 117Z" fill="#028565" stroke="#028565"></path><path d="M1498 878L1600 735L1466 757Z" fill="#00270f" stroke="#00270f"></path><path d="M1592 723L1646 647L1569 668Z" fill="#028565" stroke="#028565"></path><path d="M1654 730L1600 735L1625 851Z" fill="#00331b" stroke="#00331b"></path><path d="M429 936L540 954L578 777Z" fill="#009473" stroke="#009473"></path><path d="M561 963L629 1040L604 950Z" fill="#004e33" stroke="#004e33"></path><path d="M1438 0L1412 43L1552 0Z" fill="#037758" stroke="#037758"></path><path d="M585 1080L629 1040L561 963Z" fill="#00331b" stroke="#00331b"></path><path d="M321 501L429 577L437 427Z" fill="#025b3f" stroke="#025b3f"></path><path d="M429 577L373 647L450 723Z" fill="#028565" stroke="#028565"></path><path d="M450 724L429 936L578 777Z" fill="#004e33" stroke="#004e33"></path><path d="M1654 730L1646 647L1592 723Z" fill="#000000" stroke="#000000"></path><path d="M685 0L616 6L652 28Z" fill="#028565" stroke="#028565"></path><path d="M652 28L616 6L601 160Z" fill="#025b3f" stroke="#025b3f"></path><path d="M486 0L459 165L601 160Z" fill="#037758" stroke="#037758"></path><path d="M489 214L341 189L491 242Z" fill="#009473" stroke="#009473"></path><path d="M296 367L321 501L437 427Z" fill="#00331b" stroke="#00331b"></path><path d="M1694 316L1602 236L1587 345Z" fill="#004027" stroke="#004027"></path><path d="M1587 345L1602 236L1486 161Z" fill="#004e33" stroke="#004e33"></path><path d="M1486 161L1552 0L1425 117Z" fill="#004e33" stroke="#004e33"></path><path d="M1658 394L1587 345L1619 455Z" fill="#001e00" stroke="#001e00"></path><path d="M1751 383L1658 394L1793 478Z" fill="#009473" stroke="#009473"></path><path d="M373 647L373 730L450 723Z" fill="#037758" stroke="#037758"></path><path d="M341 189L374 321L491 242Z" fill="#025b3f" stroke="#025b3f"></path><path d="M1387 988L1473 1080L1473 918Z" fill="#025b3f" stroke="#025b3f"></path><path d="M1625 851L1600 735L1498 878Z" fill="#00331b" stroke="#00331b"></path><path d="M1262 1080L1395 1080L1387 988Z" fill="#004e33" stroke="#004e33"></path><path d="M1600 735L1654 730L1592 723Z" fill="#001e00" stroke="#001e00"></path><path d="M1751 383L1678 363L1658 394Z" fill="#00331b" stroke="#00331b"></path><path d="M1625 851L1498 878L1618 893Z" fill="#028565" stroke="#028565"></path><path d="M1602 236L1567 139L1486 161Z" fill="#00270f" stroke="#00270f"></path><path d="M1552 0L1412 43L1425 117Z" fill="#000000" stroke="#000000"></path><path d="M1412 43L1438 0L1332 0Z" fill="#00270f" stroke="#00270f"></path><path d="M296 367L437 427L425 366Z" fill="#037758" stroke="#037758"></path><path d="M373 647L342 712L373 730Z" fill="#025b3f" stroke="#025b3f"></path><path d="M175 616L342 712L373 647Z" fill="#000000" stroke="#000000"></path><path d="M356 822L429 936L450 724Z" fill="#004e33" stroke="#004e33"></path><path d="M1658 394L1678 363L1587 345Z" fill="#00270f" stroke="#00270f"></path><path d="M1602 236L1625 167L1567 139Z" fill="#001e00" stroke="#001e00"></path><path d="M1694 316L1678 363L1751 383Z" fill="#000000" stroke="#000000"></path><path d="M1395 1080L1429 1080L1387 988Z" fill="#001e00" stroke="#001e00"></path><path d="M495 1080L561 963L540 954Z" fill="#004e33" stroke="#004e33"></path><path d="M495 1080L585 1080L561 963Z" fill="#000000" stroke="#000000"></path><path d="M629 1040L585 1080L781 1080Z" fill="#00331b" stroke="#00331b"></path><path d="M1618 893L1498 878L1621 923Z" fill="#000000" stroke="#000000"></path><path d="M356 822L450 724L373 730Z" fill="#009473" stroke="#009473"></path><path d="M1621 923L1498 878L1473 918Z" fill="#00331b" stroke="#00331b"></path><path d="M1707 879L1720 688L1654 730Z" fill="#000000" stroke="#000000"></path><path d="M342 712L356 822L373 730Z" fill="#025b3f" stroke="#025b3f"></path><path d="M1757 241L1625 167L1602 236Z" fill="#000000" stroke="#000000"></path><path d="M1567 139L1552 0L1486 161Z" fill="#03694b" stroke="#03694b"></path><path d="M1429 1080L1473 1080L1387 988Z" fill="#00270f" stroke="#00270f"></path><path d="M1613 470L1600 513L1772 586Z" fill="#000000" stroke="#000000"></path><path d="M1678 363L1694 316L1587 345Z" fill="#03694b" stroke="#03694b"></path><path d="M1473 1080L1621 923L1473 918Z" fill="#037758" stroke="#037758"></path><path d="M1618 893L1707 879L1625 851Z" fill="#00270f" stroke="#00270f"></path><path d="M1707 879L1654 730L1625 851Z" fill="#025b3f" stroke="#025b3f"></path><path d="M1654 730L1720 688L1646 647Z" fill="#001e00" stroke="#001e00"></path><path d="M305 887L415 958L429 936Z" fill="#037758" stroke="#037758"></path><path d="M429 936L412 991L540 954Z" fill="#028565" stroke="#028565"></path><path d="M374 321L296 367L425 366Z" fill="#001e00" stroke="#001e00"></path><path d="M321 501L241 510L373 647Z" fill="#004027" stroke="#004027"></path><path d="M242 763L305 887L356 822Z" fill="#025b3f" stroke="#025b3f"></path><path d="M233 297L296 367L374 321Z" fill="#00331b" stroke="#00331b"></path><path d="M685 0L486 0L616 6Z" fill="#004e33" stroke="#004e33"></path><path d="M616 6L486 0L601 160Z" fill="#009473" stroke="#009473"></path><path d="M459 165L341 189L489 214Z" fill="#025b3f" stroke="#025b3f"></path><path d="M365 110L341 189L459 165Z" fill="#037758" stroke="#037758"></path><path d="M484 1080L495 1080L540 954Z" fill="#03694b" stroke="#03694b"></path><path d="M301 976L412 991L415 958Z" fill="#03694b" stroke="#03694b"></path><path d="M415 958L412 991L429 936Z" fill="#009473" stroke="#009473"></path><path d="M486 0L447 24L459 165Z" fill="#004e33" stroke="#004e33"></path><path d="M1772 586L1600 513L1646 647Z" fill="#037758" stroke="#037758"></path><path d="M1694 316L1757 241L1602 236Z" fill="#00270f" stroke="#00270f"></path><path d="M412 991L484 1080L540 954Z" fill="#028565" stroke="#028565"></path><path d="M1594 0L1567 139L1662 0Z" fill="#00331b" stroke="#00331b"></path><path d="M1594 0L1552 0L1567 139Z" fill="#00331b" stroke="#00331b"></path><path d="M198 325L254 415L296 367Z" fill="#00270f" stroke="#00270f"></path><path d="M296 367L254 415L321 501Z" fill="#03694b" stroke="#03694b"></path><path d="M1791 698L1772 586L1720 688Z" fill="#004027" stroke="#004027"></path><path d="M1720 688L1772 586L1646 647Z" fill="#004e33" stroke="#004e33"></path><path d="M254 415L241 510L321 501Z" fill="#00270f" stroke="#00270f"></path><path d="M356 822L305 887L429 936Z" fill="#025b3f" stroke="#025b3f"></path><path d="M447 24L365 110L459 165Z" fill="#028565" stroke="#028565"></path><path d="M341 189L233 297L374 321Z" fill="#000000" stroke="#000000"></path><path d="M486 0L450 0L447 24Z" fill="#03694b" stroke="#03694b"></path><path d="M447 24L380 0L365 110Z" fill="#03694b" stroke="#03694b"></path><path d="M1707 954L1707 879L1621 923Z" fill="#025b3f" stroke="#025b3f"></path><path d="M1621 923L1707 879L1618 893Z" fill="#03694b" stroke="#03694b"></path><path d="M1772 586L1793 478L1613 470Z" fill="#025b3f" stroke="#025b3f"></path><path d="M242 763L356 822L342 712Z" fill="#00331b" stroke="#00331b"></path><path d="M412 991L421 1080L484 1080Z" fill="#00331b" stroke="#00331b"></path><path d="M1662 0L1567 139L1625 167Z" fill="#009473" stroke="#009473"></path><path d="M1757 241L1694 316L1751 383Z" fill="#000000" stroke="#000000"></path><path d="M262 11L313 151L365 110Z" fill="#00270f" stroke="#00270f"></path><path d="M365 110L313 151L341 189Z" fill="#000000" stroke="#000000"></path><path d="M175 616L242 763L342 712Z" fill="#025b3f" stroke="#025b3f"></path><path d="M1707 879L1791 698L1720 688Z" fill="#03694b" stroke="#03694b"></path><path d="M1772 586L1852 563L1793 478Z" fill="#00331b" stroke="#00331b"></path><path d="M301 976L421 1080L412 991Z" fill="#025b3f" stroke="#025b3f"></path><path d="M1821 362L1757 241L1751 383Z" fill="#009473" stroke="#009473"></path><path d="M254 415L197 473L241 510Z" fill="#000000" stroke="#000000"></path><path d="M241 510L175 616L373 647Z" fill="#025b3f" stroke="#025b3f"></path><path d="M313 151L233 297L341 189Z" fill="#025b3f" stroke="#025b3f"></path><path d="M122 400L197 473L254 415Z" fill="#009473" stroke="#009473"></path><path d="M1687 1068L1707 954L1621 923Z" fill="#028565" stroke="#028565"></path><path d="M1707 879L1811 876L1791 698Z" fill="#00331b" stroke="#00331b"></path><path d="M450 0L380 0L447 24Z" fill="#001e00" stroke="#001e00"></path><path d="M136 256L198 325L233 297Z" fill="#025b3f" stroke="#025b3f"></path><path d="M1793 478L1827 395L1751 383Z" fill="#009473" stroke="#009473"></path><path d="M1920 469L1827 395L1793 478Z" fill="#028565" stroke="#028565"></path><path d="M1827 395L1821 362L1751 383Z" fill="#00270f" stroke="#00270f"></path><path d="M271 1000L301 976L212 951Z" fill="#037758" stroke="#037758"></path><path d="M305 887L301 976L415 958Z" fill="#028565" stroke="#028565"></path><path d="M122 400L198 325L103 379Z" fill="#037758" stroke="#037758"></path><path d="M233 297L198 325L296 367Z" fill="#037758" stroke="#037758"></path><path d="M1792 177L1743 133L1757 241Z" fill="#001e00" stroke="#001e00"></path><path d="M1757 241L1743 133L1625 167Z" fill="#001e00" stroke="#001e00"></path><path d="M151 548L175 616L241 510Z" fill="#009473" stroke="#009473"></path><path d="M242 763L204 820L305 887Z" fill="#025b3f" stroke="#025b3f"></path><path d="M151 548L241 510L197 473Z" fill="#037758" stroke="#037758"></path><path d="M1743 133L1662 0L1625 167Z" fill="#004027" stroke="#004027"></path><path d="M1920 530L1852 563L1920 595Z" fill="#000000" stroke="#000000"></path><path d="M1791 698L1852 563L1772 586Z" fill="#000000" stroke="#000000"></path><path d="M165 827L204 820L242 763Z" fill="#03694b" stroke="#03694b"></path><path d="M122 400L151 548L197 473Z" fill="#00270f" stroke="#00270f"></path><path d="M73 750L165 827L242 763Z" fill="#009473" stroke="#009473"></path><path d="M1852 185L1792 177L1757 241Z" fill="#00331b" stroke="#00331b"></path><path d="M1743 133L1767 70L1662 0Z" fill="#004027" stroke="#004027"></path><path d="M1852 185L1757 241L1821 362Z" fill="#028565" stroke="#028565"></path><path d="M1473 1080L1687 1068L1621 923Z" fill="#009473" stroke="#009473"></path><path d="M1707 954L1756 975L1707 879Z" fill="#037758" stroke="#037758"></path><path d="M1687 1068L1756 975L1707 954Z" fill="#00270f" stroke="#00270f"></path><path d="M47 646L140 597L0 574Z" fill="#00270f" stroke="#00270f"></path><path d="M151 548L140 597L175 616Z" fill="#004e33" stroke="#004e33"></path><path d="M1756 975L1808 879L1707 879Z" fill="#00331b" stroke="#00331b"></path><path d="M212 951L301 976L305 887Z" fill="#009473" stroke="#009473"></path><path d="M301 976L265 1080L421 1080Z" fill="#03694b" stroke="#03694b"></path><path d="M1870 830L1811 876L1920 858Z" fill="#004e33" stroke="#004e33"></path><path d="M1808 879L1811 876L1707 879Z" fill="#009473" stroke="#009473"></path><path d="M1792 177L1767 70L1743 133Z" fill="#00331b" stroke="#00331b"></path><path d="M1687 1068L1711 1080L1756 975Z" fill="#000000" stroke="#000000"></path><path d="M1920 822L1870 830L1920 858Z" fill="#025b3f" stroke="#025b3f"></path><path d="M1473 1080L1711 1080L1687 1068Z" fill="#00270f" stroke="#00270f"></path><path d="M73 750L242 763L175 616Z" fill="#025b3f" stroke="#025b3f"></path><path d="M204 820L212 951L305 887Z" fill="#004027" stroke="#004027"></path><path d="M136 256L233 297L149 169Z" fill="#009473" stroke="#009473"></path><path d="M198 325L122 400L254 415Z" fill="#00270f" stroke="#00270f"></path><path d="M165 827L212 951L204 820Z" fill="#009473" stroke="#009473"></path><path d="M380 0L262 11L365 110Z" fill="#00270f" stroke="#00270f"></path><path d="M1920 595L1852 563L1791 698Z" fill="#009473" stroke="#009473"></path><path d="M1852 563L1920 469L1793 478Z" fill="#009473" stroke="#009473"></path><path d="M1827 395L1920 344L1821 362Z" fill="#004e33" stroke="#004e33"></path><path d="M1792 177L1852 178L1767 70Z" fill="#000000" stroke="#000000"></path><path d="M1811 876L1920 1006L1920 858Z" fill="#004027" stroke="#004027"></path><path d="M1811 876L1870 830L1791 698Z" fill="#028565" stroke="#028565"></path><path d="M1920 216L1852 185L1821 362Z" fill="#03694b" stroke="#03694b"></path><path d="M1920 530L1920 469L1852 563Z" fill="#004027" stroke="#004027"></path><path d="M1920 739L1920 595L1791 698Z" fill="#000000" stroke="#000000"></path><path d="M149 169L233 297L313 151Z" fill="#009473" stroke="#009473"></path><path d="M1920 216L1852 178L1852 185Z" fill="#001e00" stroke="#001e00"></path><path d="M1852 185L1852 178L1792 177Z" fill="#028565" stroke="#028565"></path><path d="M136 256L103 379L198 325Z" fill="#00331b" stroke="#00331b"></path><path d="M0 574L140 597L151 548Z" fill="#03694b" stroke="#03694b"></path><path d="M49 711L73 750L175 616Z" fill="#009473" stroke="#009473"></path><path d="M166 1080L265 1080L271 1000Z" fill="#000000" stroke="#000000"></path><path d="M271 1000L265 1080L301 976Z" fill="#03694b" stroke="#03694b"></path><path d="M1920 469L1920 344L1827 395Z" fill="#00331b" stroke="#00331b"></path><path d="M262 11L149 169L313 151Z" fill="#004027" stroke="#004027"></path><path d="M136 256L45 345L103 379Z" fill="#000000" stroke="#000000"></path><path d="M1870 830L1920 739L1791 698Z" fill="#004027" stroke="#004027"></path><path d="M1811 876L1808 879L1920 1006Z" fill="#028565" stroke="#028565"></path><path d="M1870 830L1920 822L1920 739Z" fill="#001e00" stroke="#001e00"></path><path d="M47 646L175 616L140 597Z" fill="#00331b" stroke="#00331b"></path><path d="M66 936L166 1080L212 951Z" fill="#025b3f" stroke="#025b3f"></path><path d="M212 951L166 1080L271 1000Z" fill="#000000" stroke="#000000"></path><path d="M380 0L207 0L262 11Z" fill="#004027" stroke="#004027"></path><path d="M262 11L207 0L149 169Z" fill="#00331b" stroke="#00331b"></path><path d="M1920 344L1920 216L1821 362Z" fill="#00270f" stroke="#00270f"></path><path d="M1920 51L1822 0L1767 70Z" fill="#025b3f" stroke="#025b3f"></path><path d="M15 469L151 548L122 400Z" fill="#037758" stroke="#037758"></path><path d="M1920 1006L1808 879L1756 975Z" fill="#004027" stroke="#004027"></path><path d="M1920 51L1767 70L1852 178Z" fill="#009473" stroke="#009473"></path><path d="M1767 70L1822 0L1662 0Z" fill="#004027" stroke="#004027"></path><path d="M1711 1080L1811 1080L1756 975Z" fill="#03694b" stroke="#03694b"></path><path d="M47 646L49 711L175 616Z" fill="#004027" stroke="#004027"></path><path d="M66 936L212 951L165 827Z" fill="#001e00" stroke="#001e00"></path><path d="M0 294L45 345L136 256Z" fill="#028565" stroke="#028565"></path><path d="M103 379L15 469L122 400Z" fill="#03694b" stroke="#03694b"></path><path d="M101 154L136 256L149 169Z" fill="#004e33" stroke="#004e33"></path><path d="M176 0L101 154L149 169Z" fill="#00331b" stroke="#00331b"></path><path d="M207 0L176 0L149 169Z" fill="#000000" stroke="#000000"></path><path d="M1920 216L1920 138L1852 178Z" fill="#037758" stroke="#037758"></path><path d="M45 345L15 469L103 379Z" fill="#03694b" stroke="#03694b"></path><path d="M47 646L0 694L49 711Z" fill="#00331b" stroke="#00331b"></path><path d="M66 936L165 827L0 855Z" fill="#025b3f" stroke="#025b3f"></path><path d="M0 294L0 529L15 469Z" fill="#03694b" stroke="#03694b"></path><path d="M15 469L0 529L151 548Z" fill="#009473" stroke="#009473"></path><path d="M0 529L0 574L151 548Z" fill="#004e33" stroke="#004e33"></path><path d="M49 711L0 732L73 750Z" fill="#00331b" stroke="#00331b"></path><path d="M0 574L0 694L47 646Z" fill="#000000" stroke="#000000"></path><path d="M0 855L165 827L73 750Z" fill="#037758" stroke="#037758"></path><path d="M0 694L0 732L49 711Z" fill="#001e00" stroke="#001e00"></path><path d="M1811 1080L1920 1006L1756 975Z" fill="#025b3f" stroke="#025b3f"></path><path d="M1920 138L1920 51L1852 178Z" fill="#00331b" stroke="#00331b"></path><path d="M45 345L0 294L15 469Z" fill="#037758" stroke="#037758"></path><path d="M0 214L0 294L136 256Z" fill="#000000" stroke="#000000"></path><path d="M0 214L136 256L101 154Z" fill="#000000" stroke="#000000"></path><path d="M1811 1080L1906 1080L1920 1006Z" fill="#028565" stroke="#028565"></path><path d="M1920 51L1920 0L1822 0Z" fill="#004e33" stroke="#004e33"></path><path d="M0 181L0 214L101 154Z" fill="#00270f" stroke="#00270f"></path><path d="M0 732L0 855L73 750Z" fill="#03694b" stroke="#03694b"></path><path d="M66 936L41 984L166 1080Z" fill="#00331b" stroke="#00331b"></path><path d="M0 855L0 867L66 936Z" fill="#028565" stroke="#028565"></path><path d="M1906 1080L1920 1080L1920 1006Z" fill="#000000" stroke="#000000"></path><path d="M0 81L0 181L101 154Z" fill="#03694b" stroke="#03694b"></path><path d="M0 957L41 984L66 936Z" fill="#004e33" stroke="#004e33"></path><path d="M41 984L89 1080L166 1080Z" fill="#001e00" stroke="#001e00"></path><path d="M0 867L0 957L66 936Z" fill="#00331b" stroke="#00331b"></path><path d="M41 984L0 1080L89 1080Z" fill="#001e00" stroke="#001e00"></path><path d="M38 0L0 81L101 154Z" fill="#028565" stroke="#028565"></path><path d="M176 0L38 0L101 154Z" fill="#03694b" stroke="#03694b"></path><path d="M38 0L0 0L0 81Z" fill="#004e33" stroke="#004e33"></path><path d="M0 957L0 1080L41 984Z" fill="#001e00" stroke="#001e00"></path></g></svg>