<svg id="visual" viewBox="0 0 1920 1080" width="1920" height="1080" xmlns="http://www.w3.org/2000/svg" xmlns:xlink="http://www.w3.org/1999/xlink" version="1.1"><rect x="0" y="0" width="1920" height="1080" fill="#000000"></rect><path d="M0 583L83 542L167 570L250 584L334 576L417 599L501 551L584 618L668 574L751 584L835 585L918 550L1002 590L1085 553L1169 548L1252 611L1336 581L1419 539L1503 573L1586 597L1670 603L1753 547L1837 539L1920 568L1920 1081L1837 1081L1753 1081L1670 1081L1586 1081L1503 1081L1419 1081L1336 1081L1252 1081L1169 1081L1085 1081L1002 1081L918 1081L835 1081L751 1081L668 1081L584 1081L501 1081L417 1081L334 1081L250 1081L167 1081L83 1081L0 1081Z" fill="#36b796"></path><path d="M0 605L83 600L167 595L250 593L334 587L417 600L501 630L584 582L668 621L751 611L835 660L918 651L1002 664L1085 585L1169 595L1252 605L1336 586L1419 636L1503 585L1586 585L1670 595L1753 602L1837 618L1920 639L1920 1081L1837 1081L1753 1081L1670 1081L1586 1081L1503 1081L1419 1081L1336 1081L1252 1081L1169 1081L1085 1081L1002 1081L918 1081L835 1081L751 1081L668 1081L584 1081L501 1081L417 1081L334 1081L250 1081L167 1081L83 1081L0 1081Z" fill="#2fb190"></path><path d="M0 672L83 665L167 638L250 654L334 668L417 666L501 629L584 685L668 636L751 682L835 649L918 623L1002 677L1085 653L1169 646L1252 656L1336 627L1419 667L1503 689L1586 664L1670 669L1753 643L1837 628L1920 656L1920 1081L1837 1081L1753 1081L1670 1081L1586 1081L1503 1081L1419 1081L1336 1081L1252 1081L1169 1081L1085 1081L1002 1081L918 1081L835 1081L751 1081L668 1081L584 1081L501 1081L417 1081L334 1081L250 1081L167 1081L83 1081L0 1081Z" fill="#28aa89"></path><path d="M0 674L83 692L167 701L250 746L334 724L417 701L501 702L584 724L668 713L751 707L835 737L918 738L1002 681L1085 717L1169 745L1252 708L1336 694L1419 675L1503 721L1586 708L1670 694L1753 741L1837 694L1920 665L1920 1081L1837 1081L1753 1081L1670 1081L1586 1081L1503 1081L1419 1081L1336 1081L1252 1081L1169 1081L1085 1081L1002 1081L918 1081L835 1081L751 1081L668 1081L584 1081L501 1081L417 1081L334 1081L250 1081L167 1081L83 1081L0 1081Z" fill="#1fa483"></path><path d="M0 748L83 711L167 718L250 746L334 709L417 772L501 715L584 763L668 751L751 713L835 712L918 772L1002 710L1085 731L1169 778L1252 778L1336 724L1419 782L1503 761L1586 786L1670 738L1753 749L1837 769L1920 767L1920 1081L1837 1081L1753 1081L1670 1081L1586 1081L1503 1081L1419 1081L1336 1081L1252 1081L1169 1081L1085 1081L1002 1081L918 1081L835 1081L751 1081L668 1081L584 1081L501 1081L417 1081L334 1081L250 1081L167 1081L83 1081L0 1081Z" fill="#169d7c"></path><path d="M0 802L83 758L167 784L250 771L334 791L417 812L501 790L584 762L668 756L751 806L835 800L918 751L1002 767L1085 825L1169 768L1252 814L1336 809L1419 802L1503 774L1586 792L1670 764L1753 816L1837 802L1920 824L1920 1081L1837 1081L1753 1081L1670 1081L1586 1081L1503 1081L1419 1081L1336 1081L1252 1081L1169 1081L1085 1081L1002 1081L918 1081L835 1081L751 1081L668 1081L584 1081L501 1081L417 1081L334 1081L250 1081L167 1081L83 1081L0 1081Z" fill="#089776"></path><path d="M0 864L83 853L167 852L250 811L334 828L417 817L501 827L584 841L668 813L751 802L835 812L918 852L1002 841L1085 871L1169 832L1252 827L1336 826L1419 790L1503 830L1586 831L1670 826L1753 861L1837 835L1920 818L1920 1081L1837 1081L1753 1081L1670 1081L1586 1081L1503 1081L1419 1081L1336 1081L1252 1081L1169 1081L1085 1081L1002 1081L918 1081L835 1081L751 1081L668 1081L584 1081L501 1081L417 1081L334 1081L250 1081L167 1081L83 1081L0 1081Z" fill="#009070"></path><path d="M0 842L83 871L167 868L250 905L334 830L417 885L501 878L584 870L668 862L751 859L835 872L918 846L1002 903L1085 843L1169 884L1252 844L1336 840L1419 909L1503 865L1586 895L1670 898L1753 910L1837 847L1920 839L1920 1081L1837 1081L1753 1081L1670 1081L1586 1081L1503 1081L1419 1081L1336 1081L1252 1081L1169 1081L1085 1081L1002 1081L918 1081L835 1081L751 1081L668 1081L584 1081L501 1081L417 1081L334 1081L250 1081L167 1081L83 1081L0 1081Z" fill="#00896b"></path><path d="M0 926L83 928L167 899L250 926L334 924L417 925L501 921L584 948L668 934L751 949L835 912L918 888L1002 954L1085 934L1169 895L1252 878L1336 940L1419 904L1503 950L1586 932L1670 906L1753 940L1837 888L1920 905L1920 1081L1837 1081L1753 1081L1670 1081L1586 1081L1503 1081L1419 1081L1336 1081L1252 1081L1169 1081L1085 1081L1002 1081L918 1081L835 1081L751 1081L668 1081L584 1081L501 1081L417 1081L334 1081L250 1081L167 1081L83 1081L0 1081Z" fill="#008265"></path><path d="M0 925L83 938L167 942L250 989L334 976L417 952L501 994L584 925L668 941L751 914L835 971L918 990L1002 965L1085 938L1169 926L1252 983L1336 925L1419 986L1503 913L1586 961L1670 968L1753 928L1837 974L1920 936L1920 1081L1837 1081L1753 1081L1670 1081L1586 1081L1503 1081L1419 1081L1336 1081L1252 1081L1169 1081L1085 1081L1002 1081L918 1081L835 1081L751 1081L668 1081L584 1081L501 1081L417 1081L334 1081L250 1081L167 1081L83 1081L0 1081Z" fill="#007a60"></path><path d="M0 1036L83 978L167 976L250 1037L334 956L417 1003L501 1001L584 1012L668 976L751 985L835 1014L918 988L1002 956L1085 1029L1169 1031L1252 1018L1336 998L1419 972L1503 963L1586 979L1670 963L1753 1004L1837 974L1920 1015L1920 1081L1837 1081L1753 1081L1670 1081L1586 1081L1503 1081L1419 1081L1336 1081L1252 1081L1169 1081L1085 1081L1002 1081L918 1081L835 1081L751 1081L668 1081L584 1081L501 1081L417 1081L334 1081L250 1081L167 1081L83 1081L0 1081Z" fill="#00735a"></path><path d="M0 1012L83 1071L167 1037L250 1076L334 1031L417 1014L501 1005L584 1010L668 1074L751 1017L835 1061L918 1040L1002 1028L1085 1031L1169 1060L1252 1016L1336 1005L1419 1021L1503 1067L1586 1001L1670 1003L1753 1079L1837 1033L1920 1065L1920 1081L1837 1081L1753 1081L1670 1081L1586 1081L1503 1081L1419 1081L1336 1081L1252 1081L1169 1081L1085 1081L1002 1081L918 1081L835 1081L751 1081L668 1081L584 1081L501 1081L417 1081L334 1081L250 1081L167 1081L83 1081L0 1081Z" fill="#006c55"></path></svg>