<svg id="visual" viewBox="0 0 1920 1080" width="1920" height="1080" xmlns="http://www.w3.org/2000/svg" xmlns:xlink="http://www.w3.org/1999/xlink" version="1.1"><rect x="0" y="0" width="1920" height="1080" fill="#000000"></rect><path d="M0 249L45.7 259.7C91.3 270.3 182.7 291.7 274.2 291.7C365.7 291.7 457.3 270.3 548.8 274.8C640.3 279.3 731.7 309.7 823 306.2C914.3 302.7 1005.7 265.3 1097 257.7C1188.3 250 1279.7 272 1371.2 288.5C1462.7 305 1554.3 316 1645.8 324C1737.3 332 1828.7 337 1874.3 339.5L1920 342L1920 0L1874.3 0C1828.7 0 1737.3 0 1645.8 0C1554.3 0 1462.7 0 1371.2 0C1279.7 0 1188.3 0 1097 0C1005.7 0 914.3 0 823 0C731.7 0 640.3 0 548.8 0C457.3 0 365.7 0 274.2 0C182.7 0 91.3 0 45.7 0L0 0Z" fill="#009473"></path><path d="M0 238L45.7 237C91.3 236 182.7 234 274.2 226.8C365.7 219.7 457.3 207.3 548.8 207.3C640.3 207.3 731.7 219.7 823 222.2C914.3 224.7 1005.7 217.3 1097 228.2C1188.3 239 1279.7 268 1371.2 277.8C1462.7 287.7 1554.3 278.3 1645.8 265.8C1737.3 253.3 1828.7 237.7 1874.3 229.8L1920 222L1920 0L1874.3 0C1828.7 0 1737.3 0 1645.8 0C1554.3 0 1462.7 0 1371.2 0C1279.7 0 1188.3 0 1097 0C1005.7 0 914.3 0 823 0C731.7 0 640.3 0 548.8 0C457.3 0 365.7 0 274.2 0C182.7 0 91.3 0 45.7 0L0 0Z" fill="#52aa8e"></path><path d="M0 164L45.7 173.8C91.3 183.7 182.7 203.3 274.2 208.7C365.7 214 457.3 205 548.8 206C640.3 207 731.7 218 823 213.3C914.3 208.7 1005.7 188.3 1097 190C1188.3 191.7 1279.7 215.3 1371.2 227.5C1462.7 239.7 1554.3 240.3 1645.8 236.5C1737.3 232.7 1828.7 224.3 1874.3 220.2L1920 216L1920 0L1874.3 0C1828.7 0 1737.3 0 1645.8 0C1554.3 0 1462.7 0 1371.2 0C1279.7 0 1188.3 0 1097 0C1005.7 0 914.3 0 823 0C731.7 0 640.3 0 548.8 0C457.3 0 365.7 0 274.2 0C182.7 0 91.3 0 45.7 0L0 0Z" fill="#80bfa9"></path><path d="M0 131L45.7 128.5C91.3 126 182.7 121 274.2 127.2C365.7 133.3 457.3 150.7 548.8 158.5C640.3 166.3 731.7 164.7 823 158C914.3 151.3 1005.7 139.7 1097 138.2C1188.3 136.7 1279.7 145.3 1371.2 147C1462.7 148.7 1554.3 143.3 1645.8 140.7C1737.3 138 1828.7 138 1874.3 138L1920 138L1920 0L1874.3 0C1828.7 0 1737.3 0 1645.8 0C1554.3 0 1462.7 0 1371.2 0C1279.7 0 1188.3 0 1097 0C1005.7 0 914.3 0 823 0C731.7 0 640.3 0 548.8 0C457.3 0 365.7 0 274.2 0C182.7 0 91.3 0 45.7 0L0 0Z" fill="#abd5c5"></path><path d="M0 117L45.7 121.5C91.3 126 182.7 135 274.2 134.8C365.7 134.7 457.3 125.3 548.8 114C640.3 102.7 731.7 89.3 823 89.3C914.3 89.3 1005.7 102.7 1097 109.5C1188.3 116.3 1279.7 116.7 1371.2 119.3C1462.7 122 1554.3 127 1645.8 130C1737.3 133 1828.7 134 1874.3 134.5L1920 135L1920 0L1874.3 0C1828.7 0 1737.3 0 1645.8 0C1554.3 0 1462.7 0 1371.2 0C1279.7 0 1188.3 0 1097 0C1005.7 0 914.3 0 823 0C731.7 0 640.3 0 548.8 0C457.3 0 365.7 0 274.2 0C182.7 0 91.3 0 45.7 0L0 0Z" fill="#d5eae2"></path><path d="M0 71L45.7 67C91.3 63 182.7 55 274.2 57C365.7 59 457.3 71 548.8 76.3C640.3 81.7 731.7 80.3 823 76.3C914.3 72.3 1005.7 65.7 1097 64C1188.3 62.3 1279.7 65.7 1371.2 70.3C1462.7 75 1554.3 81 1645.8 74.8C1737.3 68.7 1828.7 50.3 1874.3 41.2L1920 32L1920 0L1874.3 0C1828.7 0 1737.3 0 1645.8 0C1554.3 0 1462.7 0 1371.2 0C1279.7 0 1188.3 0 1097 0C1005.7 0 914.3 0 823 0C731.7 0 640.3 0 548.8 0C457.3 0 365.7 0 274.2 0C182.7 0 91.3 0 45.7 0L0 0Z" fill="#ffffff"></path></svg>