<svg id="visual" viewBox="0 0 1920 1080" width="1920" height="1080" xmlns="http://www.w3.org/2000/svg" xmlns:xlink="http://www.w3.org/1999/xlink" version="1.1"><rect x="0" y="0" width="1920" height="1080" fill="#000000"></rect><path d="M0 296L83 321L167 305L250 296L334 301L417 287L501 316L584 276L668 302L751 296L835 295L918 316L1002 293L1085 315L1169 318L1252 280L1336 298L1419 323L1503 302L1586 288L1670 285L1753 318L1837 323L1920 306L1920 0L1837 0L1753 0L1670 0L1586 0L1503 0L1419 0L1336 0L1252 0L1169 0L1085 0L1002 0L918 0L835 0L751 0L668 0L584 0L501 0L417 0L334 0L250 0L167 0L83 0L0 0Z" fill="#36b796"></path><path d="M0 283L83 286L167 289L250 291L334 294L417 287L501 268L584 297L668 274L751 280L835 250L918 256L1002 248L1085 295L1169 289L1252 283L1336 295L1419 265L1503 296L1586 295L1670 289L1753 285L1837 275L1920 263L1920 0L1837 0L1753 0L1670 0L1586 0L1503 0L1419 0L1336 0L1252 0L1169 0L1085 0L1002 0L918 0L835 0L751 0L668 0L584 0L501 0L417 0L334 0L250 0L167 0L83 0L0 0Z" fill="#2fb190"></path><path d="M0 243L83 248L167 263L250 254L334 245L417 247L501 269L584 235L668 265L751 237L835 257L918 272L1002 240L1085 254L1169 259L1252 253L1336 270L1419 246L1503 233L1586 248L1670 245L1753 260L1837 270L1920 253L1920 0L1837 0L1753 0L1670 0L1586 0L1503 0L1419 0L1336 0L1252 0L1169 0L1085 0L1002 0L918 0L835 0L751 0L668 0L584 0L501 0L417 0L334 0L250 0L167 0L83 0L0 0Z" fill="#28aa89"></path><path d="M0 242L83 231L167 226L250 199L334 212L417 226L501 225L584 212L668 218L751 222L835 204L918 204L1002 238L1085 216L1169 199L1252 221L1336 230L1419 242L1503 214L1586 222L1670 230L1753 202L1837 230L1920 247L1920 0L1837 0L1753 0L1670 0L1586 0L1503 0L1419 0L1336 0L1252 0L1169 0L1085 0L1002 0L918 0L835 0L751 0L668 0L584 0L501 0L417 0L334 0L250 0L167 0L83 0L0 0Z" fill="#1fa483"></path><path d="M0 198L83 220L167 216L250 199L334 221L417 183L501 217L584 189L668 196L751 219L835 219L918 183L1002 220L1085 208L1169 179L1252 180L1336 212L1419 177L1503 190L1586 175L1670 203L1753 197L1837 185L1920 186L1920 0L1837 0L1753 0L1670 0L1586 0L1503 0L1419 0L1336 0L1252 0L1169 0L1085 0L1002 0L918 0L835 0L751 0L668 0L584 0L501 0L417 0L334 0L250 0L167 0L83 0L0 0Z" fill="#169d7c"></path><path d="M0 165L83 192L167 176L250 184L334 172L417 159L501 172L584 189L668 193L751 163L835 166L918 196L1002 186L1085 151L1169 186L1252 158L1336 161L1419 165L1503 182L1586 171L1670 188L1753 157L1837 165L1920 152L1920 0L1837 0L1753 0L1670 0L1586 0L1503 0L1419 0L1336 0L1252 0L1169 0L1085 0L1002 0L918 0L835 0L751 0L668 0L584 0L501 0L417 0L334 0L250 0L167 0L83 0L0 0Z" fill="#089776"></path><path d="M0 128L83 135L167 135L250 160L334 150L417 156L501 150L584 142L668 159L751 165L835 159L918 135L1002 142L1085 124L1169 147L1252 150L1336 151L1419 172L1503 149L1586 148L1670 151L1753 130L1837 146L1920 156L1920 0L1837 0L1753 0L1670 0L1586 0L1503 0L1419 0L1336 0L1252 0L1169 0L1085 0L1002 0L918 0L835 0L751 0L668 0L584 0L501 0L417 0L334 0L250 0L167 0L83 0L0 0Z" fill="#009070"></path><path d="M0 141L83 124L167 125L250 104L334 148L417 116L501 120L584 124L668 129L751 131L835 123L918 139L1002 105L1085 140L1169 116L1252 140L1336 142L1419 101L1503 127L1586 109L1670 108L1753 100L1837 138L1920 143L1920 0L1837 0L1753 0L1670 0L1586 0L1503 0L1419 0L1336 0L1252 0L1169 0L1085 0L1002 0L918 0L835 0L751 0L668 0L584 0L501 0L417 0L334 0L250 0L167 0L83 0L0 0Z" fill="#00896b"></path><path d="M0 91L83 90L167 107L250 91L334 92L417 92L501 94L584 78L668 86L751 77L835 99L918 113L1002 74L1085 86L1169 109L1252 119L1336 82L1419 104L1503 76L1586 87L1670 103L1753 83L1837 114L1920 103L1920 0L1837 0L1753 0L1670 0L1586 0L1503 0L1419 0L1336 0L1252 0L1169 0L1085 0L1002 0L918 0L835 0L751 0L668 0L584 0L501 0L417 0L334 0L250 0L167 0L83 0L0 0Z" fill="#008265"></path><path d="M0 91L83 83L167 81L250 53L334 61L417 75L501 50L584 91L668 82L751 98L835 64L918 53L1002 67L1085 84L1169 91L1252 57L1336 91L1419 55L1503 98L1586 70L1670 66L1753 90L1837 62L1920 85L1920 0L1837 0L1753 0L1670 0L1586 0L1503 0L1419 0L1336 0L1252 0L1169 0L1085 0L1002 0L918 0L835 0L751 0L668 0L584 0L501 0L417 0L334 0L250 0L167 0L83 0L0 0Z" fill="#007a60"></path><path d="M0 25L83 60L167 61L250 24L334 73L417 45L501 46L584 39L668 61L751 55L835 38L918 54L1002 73L1085 29L1169 28L1252 35L1336 47L1419 63L1503 68L1586 59L1670 69L1753 44L1837 62L1920 38L1920 0L1837 0L1753 0L1670 0L1586 0L1503 0L1419 0L1336 0L1252 0L1169 0L1085 0L1002 0L918 0L835 0L751 0L668 0L584 0L501 0L417 0L334 0L250 0L167 0L83 0L0 0Z" fill="#00735a"></path><path d="M0 39L83 4L167 24L250 1L334 28L417 38L501 43L584 41L668 2L751 36L835 10L918 22L1002 30L1085 28L1169 10L1252 37L1336 43L1419 34L1503 6L1586 46L1670 45L1753 0L1837 27L1920 8L1920 0L1837 0L1753 0L1670 0L1586 0L1503 0L1419 0L1336 0L1252 0L1169 0L1085 0L1002 0L918 0L835 0L751 0L668 0L584 0L501 0L417 0L334 0L250 0L167 0L83 0L0 0Z" fill="#006c55"></path></svg>