<svg id="visual" viewBox="0 0 900 600" width="900" height="600" xmlns="http://www.w3.org/2000/svg" xmlns:xlink="http://www.w3.org/1999/xlink" version="1.1"><rect x="0" y="0" width="900" height="600" fill="#000000"></rect><path d="M0 289L10.7 290.7C21.3 292.3 42.7 295.7 64.2 294C85.7 292.3 107.3 285.7 128.8 280.5C150.3 275.3 171.7 271.7 193 274.2C214.3 276.7 235.7 285.3 257 288.3C278.3 291.3 299.7 288.7 321.2 283.8C342.7 279 364.3 272 385.8 272.8C407.3 273.7 428.7 282.3 450 285.7C471.3 289 492.7 287 514.2 282C535.7 277 557.3 269 578.8 265.2C600.3 261.3 621.7 261.7 643 266.2C664.3 270.7 685.7 279.3 707 281.8C728.3 284.3 749.7 280.7 771.2 281.7C792.7 282.7 814.3 288.3 835.8 287.7C857.3 287 878.7 280 889.3 276.5L900 273L900 0L889.3 0C878.7 0 857.3 0 835.8 0C814.3 0 792.7 0 771.2 0C749.7 0 728.3 0 707 0C685.7 0 664.3 0 643 0C621.7 0 600.3 0 578.8 0C557.3 0 535.7 0 514.2 0C492.7 0 471.3 0 450 0C428.7 0 407.3 0 385.8 0C364.3 0 342.7 0 321.2 0C299.7 0 278.3 0 257 0C235.7 0 214.3 0 193 0C171.7 0 150.3 0 128.8 0C107.3 0 85.7 0 64.2 0C42.7 0 21.3 0 10.7 0L0 0Z" fill="#000000"></path><path d="M0 247L10.7 248.8C21.3 250.7 42.7 254.3 64.2 257.2C85.7 260 107.3 262 128.8 263.3C150.3 264.7 171.7 265.3 193 265C214.3 264.7 235.7 263.3 257 260C278.3 256.7 299.7 251.3 321.2 248.5C342.7 245.7 364.3 245.3 385.8 248C407.3 250.7 428.7 256.3 450 255.7C471.3 255 492.7 248 514.2 248.8C535.7 249.7 557.3 258.3 578.8 262.2C600.3 266 621.7 265 643 263C664.3 261 685.7 258 707 254C728.3 250 749.7 245 771.2 248.3C792.7 251.7 814.3 263.3 835.8 266.7C857.3 270 878.7 265 889.3 262.5L900 260L900 0L889.3 0C878.7 0 857.3 0 835.8 0C814.3 0 792.7 0 771.2 0C749.7 0 728.3 0 707 0C685.7 0 664.3 0 643 0C621.7 0 600.3 0 578.8 0C557.3 0 535.7 0 514.2 0C492.7 0 471.3 0 450 0C428.7 0 407.3 0 385.8 0C364.3 0 342.7 0 321.2 0C299.7 0 278.3 0 257 0C235.7 0 214.3 0 193 0C171.7 0 150.3 0 128.8 0C107.3 0 85.7 0 64.2 0C42.7 0 21.3 0 10.7 0L0 0Z" fill="#1a1a1a"></path><path d="M0 245L10.7 241.5C21.3 238 42.7 231 64.2 227.7C85.7 224.3 107.3 224.7 128.8 228.3C150.3 232 171.7 239 193 238.7C214.3 238.3 235.7 230.7 257 230.8C278.3 231 299.7 239 321.2 238.3C342.7 237.7 364.3 228.3 385.8 224.3C407.3 220.3 428.7 221.7 450 223.7C471.3 225.7 492.7 228.3 514.2 232.3C535.7 236.3 557.3 241.7 578.8 244.3C600.3 247 621.7 247 643 243.2C664.3 239.3 685.7 231.7 707 231.8C728.3 232 749.7 240 771.2 239.8C792.7 239.7 814.3 231.3 835.8 227.8C857.3 224.3 878.7 225.7 889.3 226.3L900 227L900 0L889.3 0C878.7 0 857.3 0 835.8 0C814.3 0 792.7 0 771.2 0C749.7 0 728.3 0 707 0C685.7 0 664.3 0 643 0C621.7 0 600.3 0 578.8 0C557.3 0 535.7 0 514.2 0C492.7 0 471.3 0 450 0C428.7 0 407.3 0 385.8 0C364.3 0 342.7 0 321.2 0C299.7 0 278.3 0 257 0C235.7 0 214.3 0 193 0C171.7 0 150.3 0 128.8 0C107.3 0 85.7 0 64.2 0C42.7 0 21.3 0 10.7 0L0 0Z" fill="#2c2c2c"></path><path d="M0 198L10.7 201.5C21.3 205 42.7 212 64.2 217.2C85.7 222.3 107.3 225.7 128.8 225.5C150.3 225.3 171.7 221.7 193 216.5C214.3 211.3 235.7 204.7 257 203.3C278.3 202 299.7 206 321.2 206.2C342.7 206.3 364.3 202.7 385.8 201.5C407.3 200.3 428.7 201.7 450 201.5C471.3 201.3 492.7 199.7 514.2 200.5C535.7 201.3 557.3 204.7 578.8 208.5C600.3 212.3 621.7 216.7 643 216.7C664.3 216.7 685.7 212.3 707 211.2C728.3 210 749.7 212 771.2 215.2C792.7 218.3 814.3 222.7 835.8 221.7C857.3 220.7 878.7 214.3 889.3 211.2L900 208L900 0L889.3 0C878.7 0 857.3 0 835.8 0C814.3 0 792.7 0 771.2 0C749.7 0 728.3 0 707 0C685.7 0 664.3 0 643 0C621.7 0 600.3 0 578.8 0C557.3 0 535.7 0 514.2 0C492.7 0 471.3 0 450 0C428.7 0 407.3 0 385.8 0C364.3 0 342.7 0 321.2 0C299.7 0 278.3 0 257 0C235.7 0 214.3 0 193 0C171.7 0 150.3 0 128.8 0C107.3 0 85.7 0 64.2 0C42.7 0 21.3 0 10.7 0L0 0Z" fill="#404040"></path><path d="M0 181L10.7 183.8C21.3 186.7 42.7 192.3 64.2 194.5C85.7 196.7 107.3 195.3 128.8 193.5C150.3 191.7 171.7 189.3 193 189.8C214.3 190.3 235.7 193.7 257 196.7C278.3 199.7 299.7 202.3 321.2 203.3C342.7 204.3 364.3 203.7 385.8 201C407.3 198.3 428.7 193.7 450 189.3C471.3 185 492.7 181 514.2 180.3C535.7 179.7 557.3 182.3 578.8 185.3C600.3 188.3 621.7 191.7 643 194.8C664.3 198 685.7 201 707 200.3C728.3 199.7 749.7 195.3 771.2 193C792.7 190.7 814.3 190.3 835.8 189.5C857.3 188.7 878.7 187.3 889.3 186.7L900 186L900 0L889.3 0C878.7 0 857.3 0 835.8 0C814.3 0 792.7 0 771.2 0C749.7 0 728.3 0 707 0C685.7 0 664.3 0 643 0C621.7 0 600.3 0 578.8 0C557.3 0 535.7 0 514.2 0C492.7 0 471.3 0 450 0C428.7 0 407.3 0 385.8 0C364.3 0 342.7 0 321.2 0C299.7 0 278.3 0 257 0C235.7 0 214.3 0 193 0C171.7 0 150.3 0 128.8 0C107.3 0 85.7 0 64.2 0C42.7 0 21.3 0 10.7 0L0 0Z" fill="#565656"></path><path d="M0 165L10.7 167C21.3 169 42.7 173 64.2 172.7C85.7 172.3 107.3 167.7 128.8 164.7C150.3 161.7 171.7 160.3 193 160.8C214.3 161.3 235.7 163.7 257 164.7C278.3 165.7 299.7 165.3 321.2 166C342.7 166.7 364.3 168.3 385.8 169C407.3 169.7 428.7 169.3 450 170.7C471.3 172 492.7 175 514.2 174.2C535.7 173.3 557.3 168.7 578.8 165.8C600.3 163 621.7 162 643 161.7C664.3 161.3 685.7 161.7 707 163.3C728.3 165 749.7 168 771.2 170.8C792.7 173.7 814.3 176.3 835.8 177.5C857.3 178.7 878.7 178.3 889.3 178.2L900 178L900 0L889.3 0C878.7 0 857.3 0 835.8 0C814.3 0 792.7 0 771.2 0C749.7 0 728.3 0 707 0C685.7 0 664.3 0 643 0C621.7 0 600.3 0 578.8 0C557.3 0 535.7 0 514.2 0C492.7 0 471.3 0 450 0C428.7 0 407.3 0 385.8 0C364.3 0 342.7 0 321.2 0C299.7 0 278.3 0 257 0C235.7 0 214.3 0 193 0C171.7 0 150.3 0 128.8 0C107.3 0 85.7 0 64.2 0C42.7 0 21.3 0 10.7 0L0 0Z" fill="#6c6c6c"></path><path d="M0 154L10.7 151.5C21.3 149 42.7 144 64.2 142.5C85.7 141 107.3 143 128.8 143C150.3 143 171.7 141 193 140.2C214.3 139.3 235.7 139.7 257 140.2C278.3 140.7 299.7 141.3 321.2 143.8C342.7 146.3 364.3 150.7 385.8 152.8C407.3 155 428.7 155 450 154.3C471.3 153.7 492.7 152.3 514.2 152.3C535.7 152.3 557.3 153.7 578.8 151.8C600.3 150 621.7 145 643 143.5C664.3 142 685.7 144 707 146C728.3 148 749.7 150 771.2 148.5C792.7 147 814.3 142 835.8 140.5C857.3 139 878.7 141 889.3 142L900 143L900 0L889.3 0C878.7 0 857.3 0 835.8 0C814.3 0 792.7 0 771.2 0C749.7 0 728.3 0 707 0C685.7 0 664.3 0 643 0C621.7 0 600.3 0 578.8 0C557.3 0 535.7 0 514.2 0C492.7 0 471.3 0 450 0C428.7 0 407.3 0 385.8 0C364.3 0 342.7 0 321.2 0C299.7 0 278.3 0 257 0C235.7 0 214.3 0 193 0C171.7 0 150.3 0 128.8 0C107.3 0 85.7 0 64.2 0C42.7 0 21.3 0 10.7 0L0 0Z" fill="#838383"></path><path d="M0 121L10.7 121.5C21.3 122 42.7 123 64.2 122.5C85.7 122 107.3 120 128.8 121.3C150.3 122.7 171.7 127.3 193 127.5C214.3 127.7 235.7 123.3 257 123.5C278.3 123.7 299.7 128.3 321.2 128.7C342.7 129 364.3 125 385.8 122C407.3 119 428.7 117 450 117.5C471.3 118 492.7 121 514.2 121.7C535.7 122.3 557.3 120.7 578.8 121.5C600.3 122.3 621.7 125.7 643 127.3C664.3 129 685.7 129 707 127.5C728.3 126 749.7 123 771.2 122.7C792.7 122.3 814.3 124.7 835.8 126.7C857.3 128.7 878.7 130.3 889.3 131.2L900 132L900 0L889.3 0C878.7 0 857.3 0 835.8 0C814.3 0 792.7 0 771.2 0C749.7 0 728.3 0 707 0C685.7 0 664.3 0 643 0C621.7 0 600.3 0 578.8 0C557.3 0 535.7 0 514.2 0C492.7 0 471.3 0 450 0C428.7 0 407.3 0 385.8 0C364.3 0 342.7 0 321.2 0C299.7 0 278.3 0 257 0C235.7 0 214.3 0 193 0C171.7 0 150.3 0 128.8 0C107.3 0 85.7 0 64.2 0C42.7 0 21.3 0 10.7 0L0 0Z" fill="#9a9a9a"></path><path d="M0 105L10.7 105.8C21.3 106.7 42.7 108.3 64.2 106.8C85.7 105.3 107.3 100.7 128.8 98.5C150.3 96.3 171.7 96.7 193 97C214.3 97.3 235.7 97.7 257 99.2C278.3 100.7 299.7 103.3 321.2 105C342.7 106.7 364.3 107.3 385.8 107.3C407.3 107.3 428.7 106.7 450 105C471.3 103.3 492.7 100.7 514.2 100.3C535.7 100 557.3 102 578.8 101.7C600.3 101.3 621.7 98.7 643 97.5C664.3 96.3 685.7 96.7 707 97.2C728.3 97.7 749.7 98.3 771.2 98.5C792.7 98.7 814.3 98.3 835.8 99.2C857.3 100 878.7 102 889.3 103L900 104L900 0L889.3 0C878.7 0 857.3 0 835.8 0C814.3 0 792.7 0 771.2 0C749.7 0 728.3 0 707 0C685.7 0 664.3 0 643 0C621.7 0 600.3 0 578.8 0C557.3 0 535.7 0 514.2 0C492.7 0 471.3 0 450 0C428.7 0 407.3 0 385.8 0C364.3 0 342.7 0 321.2 0C299.7 0 278.3 0 257 0C235.7 0 214.3 0 193 0C171.7 0 150.3 0 128.8 0C107.3 0 85.7 0 64.2 0C42.7 0 21.3 0 10.7 0L0 0Z" fill="#b2b2b2"></path><path d="M0 83L10.7 82C21.3 81 42.7 79 64.2 79.2C85.7 79.3 107.3 81.7 128.8 82C150.3 82.3 171.7 80.7 193 79.8C214.3 79 235.7 79 257 78.3C278.3 77.7 299.7 76.3 321.2 77.3C342.7 78.3 364.3 81.7 385.8 82.3C407.3 83 428.7 81 450 80.3C471.3 79.7 492.7 80.3 514.2 79.7C535.7 79 557.3 77 578.8 77.7C600.3 78.3 621.7 81.7 643 83.3C664.3 85 685.7 85 707 84C728.3 83 749.7 81 771.2 79.8C792.7 78.7 814.3 78.3 835.8 78.2C857.3 78 878.7 78 889.3 78L900 78L900 0L889.3 0C878.7 0 857.3 0 835.8 0C814.3 0 792.7 0 771.2 0C749.7 0 728.3 0 707 0C685.7 0 664.3 0 643 0C621.7 0 600.3 0 578.8 0C557.3 0 535.7 0 514.2 0C492.7 0 471.3 0 450 0C428.7 0 407.3 0 385.8 0C364.3 0 342.7 0 321.2 0C299.7 0 278.3 0 257 0C235.7 0 214.3 0 193 0C171.7 0 150.3 0 128.8 0C107.3 0 85.7 0 64.2 0C42.7 0 21.3 0 10.7 0L0 0Z" fill="#cbcbcb"></path><path d="M0 54L10.7 54C21.3 54 42.7 54 64.2 55.5C85.7 57 107.3 60 128.8 60.5C150.3 61 171.7 59 193 59C214.3 59 235.7 61 257 61C278.3 61 299.7 59 321.2 57.7C342.7 56.3 364.3 55.7 385.8 55C407.3 54.3 428.7 53.7 450 53.8C471.3 54 492.7 55 514.2 55.7C535.7 56.3 557.3 56.7 578.8 56.7C600.3 56.7 621.7 56.3 643 56.5C664.3 56.7 685.7 57.3 707 57.2C728.3 57 749.7 56 771.2 56.3C792.7 56.7 814.3 58.3 835.8 58.2C857.3 58 878.7 56 889.3 55L900 54L900 0L889.3 0C878.7 0 857.3 0 835.8 0C814.3 0 792.7 0 771.2 0C749.7 0 728.3 0 707 0C685.7 0 664.3 0 643 0C621.7 0 600.3 0 578.8 0C557.3 0 535.7 0 514.2 0C492.7 0 471.3 0 450 0C428.7 0 407.3 0 385.8 0C364.3 0 342.7 0 321.2 0C299.7 0 278.3 0 257 0C235.7 0 214.3 0 193 0C171.7 0 150.3 0 128.8 0C107.3 0 85.7 0 64.2 0C42.7 0 21.3 0 10.7 0L0 0Z" fill="#e5e5e5"></path><path d="M0 38L10.7 38C21.3 38 42.7 38 64.2 37.8C85.7 37.7 107.3 37.3 128.8 37.3C150.3 37.3 171.7 37.7 193 37.2C214.3 36.7 235.7 35.3 257 35C278.3 34.7 299.7 35.3 321.2 35.3C342.7 35.3 364.3 34.7 385.8 34.5C407.3 34.3 428.7 34.7 450 35.3C471.3 36 492.7 37 514.2 36.8C535.7 36.7 557.3 35.3 578.8 34.8C600.3 34.3 621.7 34.7 643 35.2C664.3 35.7 685.7 36.3 707 37.2C728.3 38 749.7 39 771.2 38.2C792.7 37.3 814.3 34.7 835.8 33.7C857.3 32.7 878.7 33.3 889.3 33.7L900 34L900 0L889.3 0C878.7 0 857.3 0 835.8 0C814.3 0 792.7 0 771.2 0C749.7 0 728.3 0 707 0C685.7 0 664.3 0 643 0C621.7 0 600.3 0 578.8 0C557.3 0 535.7 0 514.2 0C492.7 0 471.3 0 450 0C428.7 0 407.3 0 385.8 0C364.3 0 342.7 0 321.2 0C299.7 0 278.3 0 257 0C235.7 0 214.3 0 193 0C171.7 0 150.3 0 128.8 0C107.3 0 85.7 0 64.2 0C42.7 0 21.3 0 10.7 0L0 0Z" fill="#ffffff"></path></svg>