<svg id="visual" viewBox="0 0 900 600" width="900" height="600" xmlns="http://www.w3.org/2000/svg" xmlns:xlink="http://www.w3.org/1999/xlink" version="1.1"><rect x="0" y="0" width="900" height="600" fill="#000000"></rect><path d="M0 488L10.7 468.5C21.3 449 42.7 410 64.2 410.2C85.7 410.3 107.3 449.7 128.8 460.3C150.3 471 171.7 453 193 444.7C214.3 436.3 235.7 437.7 257 436.2C278.3 434.7 299.7 430.3 321.2 437.2C342.7 444 364.3 462 385.8 453.7C407.3 445.3 428.7 410.7 450 398C471.3 385.3 492.7 394.7 514.2 409.5C535.7 424.3 557.3 444.7 578.8 456C600.3 467.3 621.7 469.7 643 466.7C664.3 463.7 685.7 455.3 707 451.8C728.3 448.3 749.7 449.7 771.2 456.3C792.7 463 814.3 475 835.8 478.8C857.3 482.7 878.7 478.3 889.3 476.2L900 474L900 601L889.3 601C878.7 601 857.3 601 835.8 601C814.3 601 792.7 601 771.2 601C749.7 601 728.3 601 707 601C685.7 601 664.3 601 643 601C621.7 601 600.3 601 578.8 601C557.3 601 535.7 601 514.2 601C492.7 601 471.3 601 450 601C428.7 601 407.3 601 385.8 601C364.3 601 342.7 601 321.2 601C299.7 601 278.3 601 257 601C235.7 601 214.3 601 193 601C171.7 601 150.3 601 128.8 601C107.3 601 85.7 601 64.2 601C42.7 601 21.3 601 10.7 601L0 601Z" fill="#009473"></path><path d="M0 471L10.7 467C21.3 463 42.7 455 64.2 446.7C85.7 438.3 107.3 429.7 128.8 423.2C150.3 416.7 171.7 412.3 193 425.2C214.3 438 235.7 468 257 480.3C278.3 492.7 299.7 487.3 321.2 476C342.7 464.7 364.3 447.3 385.8 445.7C407.3 444 428.7 458 450 469.8C471.3 481.7 492.7 491.3 514.2 485.8C535.7 480.3 557.3 459.7 578.8 453C600.3 446.3 621.7 453.7 643 459C664.3 464.3 685.7 467.7 707 461.8C728.3 456 749.7 441 771.2 446.5C792.7 452 814.3 478 835.8 476C857.3 474 878.7 444 889.3 429L900 414L900 601L889.3 601C878.7 601 857.3 601 835.8 601C814.3 601 792.7 601 771.2 601C749.7 601 728.3 601 707 601C685.7 601 664.3 601 643 601C621.7 601 600.3 601 578.8 601C557.3 601 535.7 601 514.2 601C492.7 601 471.3 601 450 601C428.7 601 407.3 601 385.8 601C364.3 601 342.7 601 321.2 601C299.7 601 278.3 601 257 601C235.7 601 214.3 601 193 601C171.7 601 150.3 601 128.8 601C107.3 601 85.7 601 64.2 601C42.7 601 21.3 601 10.7 601L0 601Z" fill="#49a689"></path><path d="M0 444L10.7 440.8C21.3 437.7 42.7 431.3 64.2 429.7C85.7 428 107.3 431 128.8 442.3C150.3 453.7 171.7 473.3 193 484.5C214.3 495.7 235.7 498.3 257 499.3C278.3 500.3 299.7 499.7 321.2 492.3C342.7 485 364.3 471 385.8 465.3C407.3 459.7 428.7 462.3 450 457.3C471.3 452.3 492.7 439.7 514.2 445.2C535.7 450.7 557.3 474.3 578.8 475C600.3 475.7 621.7 453.3 643 442C664.3 430.7 685.7 430.3 707 437.8C728.3 445.3 749.7 460.7 771.2 472.7C792.7 484.7 814.3 493.3 835.8 497.3C857.3 501.3 878.7 500.7 889.3 500.3L900 500L900 601L889.3 601C878.7 601 857.3 601 835.8 601C814.3 601 792.7 601 771.2 601C749.7 601 728.3 601 707 601C685.7 601 664.3 601 643 601C621.7 601 600.3 601 578.8 601C557.3 601 535.7 601 514.2 601C492.7 601 471.3 601 450 601C428.7 601 407.3 601 385.8 601C364.3 601 342.7 601 321.2 601C299.7 601 278.3 601 257 601C235.7 601 214.3 601 193 601C171.7 601 150.3 601 128.8 601C107.3 601 85.7 601 64.2 601C42.7 601 21.3 601 10.7 601L0 601Z" fill="#71b8a0"></path><path d="M0 482L10.7 482.5C21.3 483 42.7 484 64.2 486.5C85.7 489 107.3 493 128.8 497.7C150.3 502.3 171.7 507.7 193 505.8C214.3 504 235.7 495 257 493.5C278.3 492 299.7 498 321.2 495C342.7 492 364.3 480 385.8 473.5C407.3 467 428.7 466 450 470.7C471.3 475.3 492.7 485.7 514.2 492.7C535.7 499.7 557.3 503.3 578.8 500.2C600.3 497 621.7 487 643 483.5C664.3 480 685.7 483 707 481.3C728.3 479.7 749.7 473.3 771.2 475.7C792.7 478 814.3 489 835.8 493.8C857.3 498.7 878.7 497.3 889.3 496.7L900 496L900 601L889.3 601C878.7 601 857.3 601 835.8 601C814.3 601 792.7 601 771.2 601C749.7 601 728.3 601 707 601C685.7 601 664.3 601 643 601C621.7 601 600.3 601 578.8 601C557.3 601 535.7 601 514.2 601C492.7 601 471.3 601 450 601C428.7 601 407.3 601 385.8 601C364.3 601 342.7 601 321.2 601C299.7 601 278.3 601 257 601C235.7 601 214.3 601 193 601C171.7 601 150.3 601 128.8 601C107.3 601 85.7 601 64.2 601C42.7 601 21.3 601 10.7 601L0 601Z" fill="#96cab7"></path><path d="M0 513L10.7 514.3C21.3 515.7 42.7 518.3 64.2 516.7C85.7 515 107.3 509 128.8 503.8C150.3 498.7 171.7 494.3 193 493.2C214.3 492 235.7 494 257 504C278.3 514 299.7 532 321.2 535.2C342.7 538.3 364.3 526.7 385.8 521.5C407.3 516.3 428.7 517.7 450 523.5C471.3 529.3 492.7 539.7 514.2 540.8C535.7 542 557.3 534 578.8 523.5C600.3 513 621.7 500 643 494C664.3 488 685.7 489 707 488.3C728.3 487.7 749.7 485.3 771.2 487.2C792.7 489 814.3 495 835.8 495.7C857.3 496.3 878.7 491.7 889.3 489.3L900 487L900 601L889.3 601C878.7 601 857.3 601 835.8 601C814.3 601 792.7 601 771.2 601C749.7 601 728.3 601 707 601C685.7 601 664.3 601 643 601C621.7 601 600.3 601 578.8 601C557.3 601 535.7 601 514.2 601C492.7 601 471.3 601 450 601C428.7 601 407.3 601 385.8 601C364.3 601 342.7 601 321.2 601C299.7 601 278.3 601 257 601C235.7 601 214.3 601 193 601C171.7 601 150.3 601 128.8 601C107.3 601 85.7 601 64.2 601C42.7 601 21.3 601 10.7 601L0 601Z" fill="#b9dccf"></path><path d="M0 542L10.7 543.5C21.3 545 42.7 548 64.2 543.7C85.7 539.3 107.3 527.7 128.8 524.2C150.3 520.7 171.7 525.3 193 527.7C214.3 530 235.7 530 257 532C278.3 534 299.7 538 321.2 539.2C342.7 540.3 364.3 538.7 385.8 542.2C407.3 545.7 428.7 554.3 450 550.8C471.3 547.3 492.7 531.7 514.2 529.7C535.7 527.7 557.3 539.3 578.8 546.2C600.3 553 621.7 555 643 555.3C664.3 555.7 685.7 554.3 707 547.8C728.3 541.3 749.7 529.7 771.2 523.8C792.7 518 814.3 518 835.8 524.5C857.3 531 878.7 544 889.3 550.5L900 557L900 601L889.3 601C878.7 601 857.3 601 835.8 601C814.3 601 792.7 601 771.2 601C749.7 601 728.3 601 707 601C685.7 601 664.3 601 643 601C621.7 601 600.3 601 578.8 601C557.3 601 535.7 601 514.2 601C492.7 601 471.3 601 450 601C428.7 601 407.3 601 385.8 601C364.3 601 342.7 601 321.2 601C299.7 601 278.3 601 257 601C235.7 601 214.3 601 193 601C171.7 601 150.3 601 128.8 601C107.3 601 85.7 601 64.2 601C42.7 601 21.3 601 10.7 601L0 601Z" fill="#dcede7"></path><path d="M0 554L10.7 554C21.3 554 42.7 554 64.2 556.7C85.7 559.3 107.3 564.7 128.8 564.2C150.3 563.7 171.7 557.3 193 556.5C214.3 555.7 235.7 560.3 257 561C278.3 561.7 299.7 558.3 321.2 556.5C342.7 554.7 364.3 554.3 385.8 557C407.3 559.7 428.7 565.3 450 566.2C471.3 567 492.7 563 514.2 563.3C535.7 563.7 557.3 568.3 578.8 569C600.3 569.7 621.7 566.3 643 564.3C664.3 562.3 685.7 561.7 707 561C728.3 560.3 749.7 559.7 771.2 557.3C792.7 555 814.3 551 835.8 553.2C857.3 555.3 878.7 563.7 889.3 567.8L900 572L900 601L889.3 601C878.7 601 857.3 601 835.8 601C814.3 601 792.7 601 771.2 601C749.7 601 728.3 601 707 601C685.7 601 664.3 601 643 601C621.7 601 600.3 601 578.8 601C557.3 601 535.7 601 514.2 601C492.7 601 471.3 601 450 601C428.7 601 407.3 601 385.8 601C364.3 601 342.7 601 321.2 601C299.7 601 278.3 601 257 601C235.7 601 214.3 601 193 601C171.7 601 150.3 601 128.8 601C107.3 601 85.7 601 64.2 601C42.7 601 21.3 601 10.7 601L0 601Z" fill="#ffffff"></path></svg>