<svg id="visual" viewBox="0 0 900 600" width="900" height="600" xmlns="http://www.w3.org/2000/svg" xmlns:xlink="http://www.w3.org/1999/xlink" version="1.1"><rect x="0" y="0" width="900" height="600" fill="#000000"></rect><path d="M0 258L10 248.5C20 239 40 220 60 230.8C80 241.7 100 282.3 120 281.8C140 281.3 160 239.7 180 233.2C200 226.7 220 255.3 240 251.8C260 248.3 280 212.7 300 194.2C320 175.7 340 174.3 360 197.5C380 220.7 400 268.3 420 291.3C440 314.3 460 312.7 480 304.7C500 296.7 520 282.3 540 275.5C560 268.7 580 269.3 600 262.5C620 255.7 640 241.3 660 227.8C680 214.3 700 201.7 720 199.2C740 196.7 760 204.3 780 201.3C800 198.3 820 184.7 840 187C860 189.3 880 207.7 890 216.8L900 226L900 0L890 0C880 0 860 0 840 0C820 0 800 0 780 0C760 0 740 0 720 0C700 0 680 0 660 0C640 0 620 0 600 0C580 0 560 0 540 0C520 0 500 0 480 0C460 0 440 0 420 0C400 0 380 0 360 0C340 0 320 0 300 0C280 0 260 0 240 0C220 0 200 0 180 0C160 0 140 0 120 0C100 0 80 0 60 0C40 0 20 0 10 0L0 0Z" fill="#009473"></path><path d="M0 198L10 201.5C20 205 40 212 60 215.3C80 218.7 100 218.3 120 221.8C140 225.3 160 232.7 180 238C200 243.3 220 246.7 240 228.2C260 209.7 280 169.3 300 158.8C320 148.3 340 167.7 360 169C380 170.3 400 153.7 420 148.8C440 144 460 151 480 171.7C500 192.3 520 226.7 540 236C560 245.3 580 229.7 600 213.3C620 197 640 180 660 187.3C680 194.7 700 226.3 720 236.2C740 246 760 234 780 231.8C800 229.7 820 237.3 840 236.7C860 236 880 227 890 222.5L900 218L900 0L890 0C880 0 860 0 840 0C820 0 800 0 780 0C760 0 740 0 720 0C700 0 680 0 660 0C640 0 620 0 600 0C580 0 560 0 540 0C520 0 500 0 480 0C460 0 440 0 420 0C400 0 380 0 360 0C340 0 320 0 300 0C280 0 260 0 240 0C220 0 200 0 180 0C160 0 140 0 120 0C100 0 80 0 60 0C40 0 20 0 10 0L0 0Z" fill="#52aa8e"></path><path d="M0 168L10 175.8C20 183.7 40 199.3 60 202.5C80 205.7 100 196.3 120 198.7C140 201 160 215 180 207.3C200 199.7 220 170.3 240 161.3C260 152.3 280 163.7 300 162.3C320 161 340 147 360 151C380 155 400 177 420 173.3C440 169.7 460 140.3 480 136.2C500 132 520 153 540 164.3C560 175.7 580 177.3 600 176.3C620 175.3 640 171.7 660 167.2C680 162.7 700 157.3 720 149.7C740 142 760 132 780 128.2C800 124.3 820 126.7 840 136.3C860 146 880 163 890 171.5L900 180L900 0L890 0C880 0 860 0 840 0C820 0 800 0 780 0C760 0 740 0 720 0C700 0 680 0 660 0C640 0 620 0 600 0C580 0 560 0 540 0C520 0 500 0 480 0C460 0 440 0 420 0C400 0 380 0 360 0C340 0 320 0 300 0C280 0 260 0 240 0C220 0 200 0 180 0C160 0 140 0 120 0C100 0 80 0 60 0C40 0 20 0 10 0L0 0Z" fill="#80bfa9"></path><path d="M0 140L10 138.3C20 136.7 40 133.3 60 139.7C80 146 100 162 120 160C140 158 160 138 180 131.8C200 125.7 220 133.3 240 130.3C260 127.3 280 113.7 300 106C320 98.3 340 96.7 360 107.3C380 118 400 141 420 154.3C440 167.7 460 171.3 480 171.2C500 171 520 167 540 167.2C560 167.3 580 171.7 600 171.7C620 171.7 640 167.3 660 166.2C680 165 700 167 720 160.2C740 153.3 760 137.7 780 129.5C800 121.3 820 120.7 840 116.8C860 113 880 106 890 102.5L900 99L900 0L890 0C880 0 860 0 840 0C820 0 800 0 780 0C760 0 740 0 720 0C700 0 680 0 660 0C640 0 620 0 600 0C580 0 560 0 540 0C520 0 500 0 480 0C460 0 440 0 420 0C400 0 380 0 360 0C340 0 320 0 300 0C280 0 260 0 240 0C220 0 200 0 180 0C160 0 140 0 120 0C100 0 80 0 60 0C40 0 20 0 10 0L0 0Z" fill="#abd5c5"></path><path d="M0 115L10 105.8C20 96.7 40 78.3 60 78.8C80 79.3 100 98.7 120 107.7C140 116.7 160 115.3 180 108.8C200 102.3 220 90.7 240 84.3C260 78 280 77 300 73C320 69 340 62 360 69.8C380 77.7 400 100.3 420 113.7C440 127 460 131 480 125.3C500 119.7 520 104.3 540 95.5C560 86.7 580 84.3 600 88.7C620 93 640 104 660 108.8C680 113.7 700 112.3 720 104.3C740 96.3 760 81.7 780 81.8C800 82 820 97 840 105.2C860 113.3 880 114.7 890 115.3L900 116L900 0L890 0C880 0 860 0 840 0C820 0 800 0 780 0C760 0 740 0 720 0C700 0 680 0 660 0C640 0 620 0 600 0C580 0 560 0 540 0C520 0 500 0 480 0C460 0 440 0 420 0C400 0 380 0 360 0C340 0 320 0 300 0C280 0 260 0 240 0C220 0 200 0 180 0C160 0 140 0 120 0C100 0 80 0 60 0C40 0 20 0 10 0L0 0Z" fill="#d5eae2"></path><path d="M0 42L10 41.5C20 41 40 40 60 38.3C80 36.7 100 34.3 120 35.3C140 36.3 160 40.7 180 44.3C200 48 220 51 240 49.7C260 48.3 280 42.7 300 43.8C320 45 340 53 360 56.3C380 59.7 400 58.3 420 61.3C440 64.3 460 71.7 480 77C500 82.3 520 85.7 540 79.7C560 73.7 580 58.3 600 55.2C620 52 640 61 660 61C680 61 700 52 720 46.8C740 41.7 760 40.3 780 44.5C800 48.7 820 58.3 840 60.5C860 62.7 880 57.3 890 54.7L900 52L900 0L890 0C880 0 860 0 840 0C820 0 800 0 780 0C760 0 740 0 720 0C700 0 680 0 660 0C640 0 620 0 600 0C580 0 560 0 540 0C520 0 500 0 480 0C460 0 440 0 420 0C400 0 380 0 360 0C340 0 320 0 300 0C280 0 260 0 240 0C220 0 200 0 180 0C160 0 140 0 120 0C100 0 80 0 60 0C40 0 20 0 10 0L0 0Z" fill="#ffffff"></path></svg>