<svg id="visual" viewBox="0 0 900 600" width="900" height="600" xmlns="http://www.w3.org/2000/svg" xmlns:xlink="http://www.w3.org/1999/xlink" version="1.1"><rect x="0" y="0" width="900" height="600" fill="#000000"></rect><path d="M0 184L10 177.2C20 170.3 40 156.7 60 164.3C80 172 100 201 120 200.7C140 200.3 160 170.7 180 166.2C200 161.7 220 182.3 240 179.8C260 177.3 280 151.7 300 138.3C320 125 340 124 360 140.5C380 157 400 191 420 207.5C440 224 460 223 480 217.3C500 211.7 520 201.3 540 196.5C560 191.7 580 192.3 600 187.5C620 182.7 640 172.3 660 162.5C680 152.7 700 143.3 720 141.5C740 139.7 760 145.3 780 143.3C800 141.3 820 131.7 840 133.3C860 135 880 148 890 154.5L900 161L900 0L890 0C880 0 860 0 840 0C820 0 800 0 780 0C760 0 740 0 720 0C700 0 680 0 660 0C640 0 620 0 600 0C580 0 560 0 540 0C520 0 500 0 480 0C460 0 440 0 420 0C400 0 380 0 360 0C340 0 320 0 300 0C280 0 260 0 240 0C220 0 200 0 180 0C160 0 140 0 120 0C100 0 80 0 60 0C40 0 20 0 10 0L0 0Z" fill="#009473"></path><path d="M0 141L10 143.5C20 146 40 151 60 153.3C80 155.7 100 155.3 120 157.8C140 160.3 160 165.7 180 169.7C200 173.7 220 176.3 240 163.2C260 150 280 121 300 113.5C320 106 340 120 360 121C380 122 400 110 420 106.5C440 103 460 108 480 122.7C500 137.3 520 161.7 540 168.2C560 174.7 580 163.3 600 151.7C620 140 640 128 660 133.3C680 138.7 700 161.3 720 168.3C740 175.3 760 166.7 780 165.2C800 163.7 820 169.3 840 168.8C860 168.3 880 161.7 890 158.3L900 155L900 0L890 0C880 0 860 0 840 0C820 0 800 0 780 0C760 0 740 0 720 0C700 0 680 0 660 0C640 0 620 0 600 0C580 0 560 0 540 0C520 0 500 0 480 0C460 0 440 0 420 0C400 0 380 0 360 0C340 0 320 0 300 0C280 0 260 0 240 0C220 0 200 0 180 0C160 0 140 0 120 0C100 0 80 0 60 0C40 0 20 0 10 0L0 0Z" fill="#52aa8e"></path><path d="M0 120L10 125.7C20 131.3 40 142.7 60 144.8C80 147 100 140 120 141.7C140 143.3 160 153.7 180 148.2C200 142.7 220 121.3 240 114.8C260 108.3 280 116.7 300 115.8C320 115 340 105 360 107.8C380 110.7 400 126.3 420 123.7C440 121 460 100 480 97C500 94 520 109 540 117C560 125 580 126 600 125.3C620 124.7 640 122.3 660 119.2C680 116 700 112 720 106.5C740 101 760 94 780 91.3C800 88.7 820 90.3 840 97.3C860 104.3 880 116.7 890 122.8L900 129L900 0L890 0C880 0 860 0 840 0C820 0 800 0 780 0C760 0 740 0 720 0C700 0 680 0 660 0C640 0 620 0 600 0C580 0 560 0 540 0C520 0 500 0 480 0C460 0 440 0 420 0C400 0 380 0 360 0C340 0 320 0 300 0C280 0 260 0 240 0C220 0 200 0 180 0C160 0 140 0 120 0C100 0 80 0 60 0C40 0 20 0 10 0L0 0Z" fill="#80bfa9"></path><path d="M0 100L10 98.8C20 97.7 40 95.3 60 99.8C80 104.3 100 115.7 120 114.2C140 112.7 160 98.3 180 93.8C200 89.3 220 94.7 240 92.5C260 90.3 280 80.7 300 75.2C320 69.7 340 68.3 360 76C380 83.7 400 100.3 420 110C440 119.7 460 122.3 480 122.2C500 122 520 119 540 119C560 119 580 122 600 122C620 122 640 119 660 118.2C680 117.3 700 118.7 720 113.8C740 109 760 98 780 92.3C800 86.7 820 86.3 840 83.5C860 80.7 880 75.3 890 72.7L900 70L900 0L890 0C880 0 860 0 840 0C820 0 800 0 780 0C760 0 740 0 720 0C700 0 680 0 660 0C640 0 620 0 600 0C580 0 560 0 540 0C520 0 500 0 480 0C460 0 440 0 420 0C400 0 380 0 360 0C340 0 320 0 300 0C280 0 260 0 240 0C220 0 200 0 180 0C160 0 140 0 120 0C100 0 80 0 60 0C40 0 20 0 10 0L0 0Z" fill="#abd5c5"></path><path d="M0 82L10 75.5C20 69 40 56 60 56.3C80 56.7 100 70.3 120 76.7C140 83 160 82 180 77.3C200 72.7 220 64.3 240 59.8C260 55.3 280 54.7 300 51.8C320 49 340 44 360 49.7C380 55.3 400 71.7 420 81.2C440 90.7 460 93.3 480 89.2C500 85 520 74 540 67.7C560 61.3 580 59.7 600 62.8C620 66 640 74 660 77.5C680 81 700 80 720 74.2C740 68.3 760 57.7 780 57.7C800 57.7 820 68.3 840 74.3C860 80.3 880 81.7 890 82.3L900 83L900 0L890 0C880 0 860 0 840 0C820 0 800 0 780 0C760 0 740 0 720 0C700 0 680 0 660 0C640 0 620 0 600 0C580 0 560 0 540 0C520 0 500 0 480 0C460 0 440 0 420 0C400 0 380 0 360 0C340 0 320 0 300 0C280 0 260 0 240 0C220 0 200 0 180 0C160 0 140 0 120 0C100 0 80 0 60 0C40 0 20 0 10 0L0 0Z" fill="#d5eae2"></path><path d="M0 30L10 29.7C20 29.3 40 28.7 60 27.3C80 26 100 24 120 24.7C140 25.3 160 28.7 180 31.3C200 34 220 36 240 35C260 34 280 30 300 30.8C320 31.7 340 37.3 360 39.8C380 42.3 400 41.7 420 43.8C440 46 460 51 480 54.7C500 58.3 520 60.7 540 56.3C560 52 580 41 600 38.7C620 36.3 640 42.7 660 42.7C680 42.7 700 36.3 720 32.8C740 29.3 760 28.7 780 31.7C800 34.7 820 41.3 840 42.8C860 44.3 880 40.7 890 38.8L900 37L900 0L890 0C880 0 860 0 840 0C820 0 800 0 780 0C760 0 740 0 720 0C700 0 680 0 660 0C640 0 620 0 600 0C580 0 560 0 540 0C520 0 500 0 480 0C460 0 440 0 420 0C400 0 380 0 360 0C340 0 320 0 300 0C280 0 260 0 240 0C220 0 200 0 180 0C160 0 140 0 120 0C100 0 80 0 60 0C40 0 20 0 10 0L0 0Z" fill="#ffffff"></path></svg>