<svg id="visual" viewBox="0 0 900 600" width="900" height="600" xmlns="http://www.w3.org/2000/svg" xmlns:xlink="http://www.w3.org/1999/xlink" version="1.1"><rect x="0" y="0" width="900" height="600" fill="#000000"></rect><path d="M0 110L10 106C20 102 40 94 60 98.7C80 103.3 100 120.7 120 120.3C140 120 160 102 180 99.2C200 96.3 220 108.7 240 107.2C260 105.7 280 90.3 300 82.3C320 74.3 340 73.7 360 83.7C380 93.7 400 114.3 420 124.3C440 134.3 460 133.7 480 130.2C500 126.7 520 120.3 540 117.3C560 114.3 580 114.7 600 111.8C620 109 640 103 660 97.2C680 91.3 700 85.7 720 84.5C740 83.3 760 86.7 780 85.5C800 84.3 820 78.7 840 79.7C860 80.7 880 88.3 890 92.2L900 96L900 0L890 0C880 0 860 0 840 0C820 0 800 0 780 0C760 0 740 0 720 0C700 0 680 0 660 0C640 0 620 0 600 0C580 0 560 0 540 0C520 0 500 0 480 0C460 0 440 0 420 0C400 0 380 0 360 0C340 0 320 0 300 0C280 0 260 0 240 0C220 0 200 0 180 0C160 0 140 0 120 0C100 0 80 0 60 0C40 0 20 0 10 0L0 0Z" fill="#009473"></path><path d="M0 84L10 85.5C20 87 40 90 60 91.5C80 93 100 93 120 94.5C140 96 160 99 180 101.3C200 103.7 220 105.3 240 97.5C260 89.7 280 72.3 300 67.8C320 63.3 340 71.7 360 72.2C380 72.7 400 65.3 420 63.2C440 61 460 64 480 72.8C500 81.7 520 96.3 540 100.3C560 104.3 580 97.7 600 90.7C620 83.7 640 76.3 660 79.5C680 82.7 700 96.3 720 100.7C740 105 760 100 780 99.2C800 98.3 820 101.7 840 101.3C860 101 880 97 890 95L900 93L900 0L890 0C880 0 860 0 840 0C820 0 800 0 780 0C760 0 740 0 720 0C700 0 680 0 660 0C640 0 620 0 600 0C580 0 560 0 540 0C520 0 500 0 480 0C460 0 440 0 420 0C400 0 380 0 360 0C340 0 320 0 300 0C280 0 260 0 240 0C220 0 200 0 180 0C160 0 140 0 120 0C100 0 80 0 60 0C40 0 20 0 10 0L0 0Z" fill="#52aa8e"></path><path d="M0 71L10 74.5C20 78 40 85 60 86.5C80 88 100 84 120 85C140 86 160 92 180 88.7C200 85.3 220 72.7 240 68.7C260 64.7 280 69.3 300 68.7C320 68 340 62 360 63.8C380 65.7 400 75.3 420 73.8C440 72.3 460 59.7 480 57.8C500 56 520 65 540 69.8C560 74.7 580 75.3 600 74.8C620 74.3 640 72.7 660 70.8C680 69 700 67 720 63.8C740 60.7 760 56.3 780 54.7C800 53 820 54 840 58.2C860 62.3 880 69.7 890 73.3L900 77L900 0L890 0C880 0 860 0 840 0C820 0 800 0 780 0C760 0 740 0 720 0C700 0 680 0 660 0C640 0 620 0 600 0C580 0 560 0 540 0C520 0 500 0 480 0C460 0 440 0 420 0C400 0 380 0 360 0C340 0 320 0 300 0C280 0 260 0 240 0C220 0 200 0 180 0C160 0 140 0 120 0C100 0 80 0 60 0C40 0 20 0 10 0L0 0Z" fill="#80bfa9"></path><path d="M0 59L10 58.3C20 57.7 40 56.3 60 59.2C80 62 100 69 120 68.2C140 67.3 160 58.7 180 56C200 53.3 220 56.7 240 55.3C260 54 280 48 300 44.7C320 41.3 340 40.7 360 45.3C380 50 400 60 420 65.7C440 71.3 460 72.7 480 72.5C500 72.3 520 70.7 540 70.8C560 71 580 73 600 73C620 73 640 71 660 70.5C680 70 700 71 720 68.2C740 65.3 760 58.7 780 55.2C800 51.7 820 51.3 840 49.7C860 48 880 45 890 43.5L900 42L900 0L890 0C880 0 860 0 840 0C820 0 800 0 780 0C760 0 740 0 720 0C700 0 680 0 660 0C640 0 620 0 600 0C580 0 560 0 540 0C520 0 500 0 480 0C460 0 440 0 420 0C400 0 380 0 360 0C340 0 320 0 300 0C280 0 260 0 240 0C220 0 200 0 180 0C160 0 140 0 120 0C100 0 80 0 60 0C40 0 20 0 10 0L0 0Z" fill="#abd5c5"></path><path d="M0 49L10 45C20 41 40 33 60 33.2C80 33.3 100 41.7 120 45.5C140 49.3 160 48.7 180 45.8C200 43 220 38 240 35.3C260 32.7 280 32.3 300 30.7C320 29 340 26 360 29.3C380 32.7 400 42.3 420 48C440 53.7 460 55.3 480 52.8C500 50.3 520 43.7 540 40C560 36.3 580 35.7 600 37.7C620 39.7 640 44.3 660 46.3C680 48.3 700 47.7 720 44.2C740 40.7 760 34.3 780 34.3C800 34.3 820 40.7 840 44.2C860 47.7 880 48.3 890 48.7L900 49L900 0L890 0C880 0 860 0 840 0C820 0 800 0 780 0C760 0 740 0 720 0C700 0 680 0 660 0C640 0 620 0 600 0C580 0 560 0 540 0C520 0 500 0 480 0C460 0 440 0 420 0C400 0 380 0 360 0C340 0 320 0 300 0C280 0 260 0 240 0C220 0 200 0 180 0C160 0 140 0 120 0C100 0 80 0 60 0C40 0 20 0 10 0L0 0Z" fill="#d5eae2"></path><path d="M0 17L10 16.8C20 16.7 40 16.3 60 15.7C80 15 100 14 120 14.5C140 15 160 17 180 18.5C200 20 220 21 240 20.3C260 19.7 280 17.3 300 17.8C320 18.3 340 21.7 360 23.2C380 24.7 400 24.3 420 25.7C440 27 460 30 480 32.3C500 34.7 520 36.3 540 33.8C560 31.3 580 24.7 600 23.2C620 21.7 640 25.3 660 25.3C680 25.3 700 21.7 720 19.5C740 17.3 760 16.7 780 18.3C800 20 820 24 840 25C860 26 880 24 890 23L900 22L900 0L890 0C880 0 860 0 840 0C820 0 800 0 780 0C760 0 740 0 720 0C700 0 680 0 660 0C640 0 620 0 600 0C580 0 560 0 540 0C520 0 500 0 480 0C460 0 440 0 420 0C400 0 380 0 360 0C340 0 320 0 300 0C280 0 260 0 240 0C220 0 200 0 180 0C160 0 140 0 120 0C100 0 80 0 60 0C40 0 20 0 10 0L0 0Z" fill="#ffffff"></path></svg>