<svg id="visual" viewBox="0 0 1360 768" width="1360" height="768" xmlns="http://www.w3.org/2000/svg" xmlns:xlink="http://www.w3.org/1999/xlink" version="1.1"><rect x="0" y="0" width="1360" height="768" fill="#000000"></rect><path d="M0 245L32.3 243.7C64.7 242.3 129.3 239.7 194.2 249.5C259 259.3 324 281.7 388.8 280.7C453.7 279.7 518.3 255.3 583 254.2C647.7 253 712.3 275 777 271.7C841.7 268.3 906.3 239.7 971.2 237C1036 234.3 1101 257.7 1165.8 257.7C1230.7 257.7 1295.3 234.3 1327.7 222.7L1360 211L1360 0L1327.7 0C1295.3 0 1230.7 0 1165.8 0C1101 0 1036 0 971.2 0C906.3 0 841.7 0 777 0C712.3 0 647.7 0 583 0C518.3 0 453.7 0 388.8 0C324 0 259 0 194.2 0C129.3 0 64.7 0 32.3 0L0 0Z" fill="#009473"></path><path d="M0 173L32.3 172.2C64.7 171.3 129.3 169.7 194.2 185.5C259 201.3 324 234.7 388.8 241.7C453.7 248.7 518.3 229.3 583 216.2C647.7 203 712.3 196 777 203.5C841.7 211 906.3 233 971.2 230.3C1036 227.7 1101 200.3 1165.8 198.5C1230.7 196.7 1295.3 220.3 1327.7 232.2L1360 244L1360 0L1327.7 0C1295.3 0 1230.7 0 1165.8 0C1101 0 1036 0 971.2 0C906.3 0 841.7 0 777 0C712.3 0 647.7 0 583 0C518.3 0 453.7 0 388.8 0C324 0 259 0 194.2 0C129.3 0 64.7 0 32.3 0L0 0Z" fill="#037758"></path><path d="M0 195L32.3 197.5C64.7 200 129.3 205 194.2 206.3C259 207.7 324 205.3 388.8 193.7C453.7 182 518.3 161 583 158.5C647.7 156 712.3 172 777 182.8C841.7 193.7 906.3 199.3 971.2 202.2C1036 205 1101 205 1165.8 205.8C1230.7 206.7 1295.3 208.3 1327.7 209.2L1360 210L1360 0L1327.7 0C1295.3 0 1230.7 0 1165.8 0C1101 0 1036 0 971.2 0C906.3 0 841.7 0 777 0C712.3 0 647.7 0 583 0C518.3 0 453.7 0 388.8 0C324 0 259 0 194.2 0C129.3 0 64.7 0 32.3 0L0 0Z" fill="#025b3f"></path><path d="M0 128L32.3 128.2C64.7 128.3 129.3 128.7 194.2 127.2C259 125.7 324 122.3 388.8 120C453.7 117.7 518.3 116.3 583 116.3C647.7 116.3 712.3 117.7 777 119.8C841.7 122 906.3 125 971.2 131.8C1036 138.7 1101 149.3 1165.8 151.8C1230.7 154.3 1295.3 148.7 1327.7 145.8L1360 143L1360 0L1327.7 0C1295.3 0 1230.7 0 1165.8 0C1101 0 1036 0 971.2 0C906.3 0 841.7 0 777 0C712.3 0 647.7 0 583 0C518.3 0 453.7 0 388.8 0C324 0 259 0 194.2 0C129.3 0 64.7 0 32.3 0L0 0Z" fill="#004027"></path><path d="M0 90L32.3 87.8C64.7 85.7 129.3 81.3 194.2 77.7C259 74 324 71 388.8 74C453.7 77 518.3 86 583 94C647.7 102 712.3 109 777 106.5C841.7 104 906.3 92 971.2 88.8C1036 85.7 1101 91.3 1165.8 88.3C1230.7 85.3 1295.3 73.7 1327.7 67.8L1360 62L1360 0L1327.7 0C1295.3 0 1230.7 0 1165.8 0C1101 0 1036 0 971.2 0C906.3 0 841.7 0 777 0C712.3 0 647.7 0 583 0C518.3 0 453.7 0 388.8 0C324 0 259 0 194.2 0C129.3 0 64.7 0 32.3 0L0 0Z" fill="#00270f"></path><path d="M0 73L32.3 73.3C64.7 73.7 129.3 74.3 194.2 70.7C259 67 324 59 388.8 55.7C453.7 52.3 518.3 53.7 583 57.8C647.7 62 712.3 69 777 71.5C841.7 74 906.3 72 971.2 67.3C1036 62.7 1101 55.3 1165.8 51.2C1230.7 47 1295.3 46 1327.7 45.5L1360 45L1360 0L1327.7 0C1295.3 0 1230.7 0 1165.8 0C1101 0 1036 0 971.2 0C906.3 0 841.7 0 777 0C712.3 0 647.7 0 583 0C518.3 0 453.7 0 388.8 0C324 0 259 0 194.2 0C129.3 0 64.7 0 32.3 0L0 0Z" fill="#000000"></path></svg>