<svg id="visual" viewBox="0 0 1360 768" width="1360" height="768" xmlns="http://www.w3.org/2000/svg" xmlns:xlink="http://www.w3.org/1999/xlink" version="1.1"><rect x="0" y="0" width="1360" height="768" fill="#000000"></rect><path d="M0 208L32.3 219.5C64.7 231 129.3 254 194.2 271.7C259 289.3 324 301.7 388.8 294.5C453.7 287.3 518.3 260.7 583 251.3C647.7 242 712.3 250 777 248.8C841.7 247.7 906.3 237.3 971.2 239.7C1036 242 1101 257 1165.8 262.2C1230.7 267.3 1295.3 262.7 1327.7 260.3L1360 258L1360 0L1327.7 0C1295.3 0 1230.7 0 1165.8 0C1101 0 1036 0 971.2 0C906.3 0 841.7 0 777 0C712.3 0 647.7 0 583 0C518.3 0 453.7 0 388.8 0C324 0 259 0 194.2 0C129.3 0 64.7 0 32.3 0L0 0Z" fill="#009473"></path><path d="M0 179L32.3 185.2C64.7 191.3 129.3 203.7 194.2 202.2C259 200.7 324 185.3 388.8 194.3C453.7 203.3 518.3 236.7 583 236.5C647.7 236.3 712.3 202.7 777 189.7C841.7 176.7 906.3 184.3 971.2 198.7C1036 213 1101 234 1165.8 238C1230.7 242 1295.3 229 1327.7 222.5L1360 216L1360 0L1327.7 0C1295.3 0 1230.7 0 1165.8 0C1101 0 1036 0 971.2 0C906.3 0 841.7 0 777 0C712.3 0 647.7 0 583 0C518.3 0 453.7 0 388.8 0C324 0 259 0 194.2 0C129.3 0 64.7 0 32.3 0L0 0Z" fill="#037758"></path><path d="M0 172L32.3 168.2C64.7 164.3 129.3 156.7 194.2 151.2C259 145.7 324 142.3 388.8 150.5C453.7 158.7 518.3 178.3 583 191.2C647.7 204 712.3 210 777 199C841.7 188 906.3 160 971.2 156.2C1036 152.3 1101 172.7 1165.8 173.3C1230.7 174 1295.3 155 1327.7 145.5L1360 136L1360 0L1327.7 0C1295.3 0 1230.7 0 1165.8 0C1101 0 1036 0 971.2 0C906.3 0 841.7 0 777 0C712.3 0 647.7 0 583 0C518.3 0 453.7 0 388.8 0C324 0 259 0 194.2 0C129.3 0 64.7 0 32.3 0L0 0Z" fill="#025b3f"></path><path d="M0 103L32.3 112.5C64.7 122 129.3 141 194.2 150.5C259 160 324 160 388.8 155.5C453.7 151 518.3 142 583 138.2C647.7 134.3 712.3 135.7 777 134.8C841.7 134 906.3 131 971.2 135.7C1036 140.3 1101 152.7 1165.8 160.3C1230.7 168 1295.3 171 1327.7 172.5L1360 174L1360 0L1327.7 0C1295.3 0 1230.7 0 1165.8 0C1101 0 1036 0 971.2 0C906.3 0 841.7 0 777 0C712.3 0 647.7 0 583 0C518.3 0 453.7 0 388.8 0C324 0 259 0 194.2 0C129.3 0 64.7 0 32.3 0L0 0Z" fill="#004027"></path><path d="M0 117L32.3 108.8C64.7 100.7 129.3 84.3 194.2 80.8C259 77.3 324 86.7 388.8 92.7C453.7 98.7 518.3 101.3 583 97.2C647.7 93 712.3 82 777 77.2C841.7 72.3 906.3 73.7 971.2 83C1036 92.3 1101 109.7 1165.8 114C1230.7 118.3 1295.3 109.7 1327.7 105.3L1360 101L1360 0L1327.7 0C1295.3 0 1230.7 0 1165.8 0C1101 0 1036 0 971.2 0C906.3 0 841.7 0 777 0C712.3 0 647.7 0 583 0C518.3 0 453.7 0 388.8 0C324 0 259 0 194.2 0C129.3 0 64.7 0 32.3 0L0 0Z" fill="#00270f"></path><path d="M0 28L32.3 28.5C64.7 29 129.3 30 194.2 33.5C259 37 324 43 388.8 46.5C453.7 50 518.3 51 583 54.3C647.7 57.7 712.3 63.3 777 59.3C841.7 55.3 906.3 41.7 971.2 42.2C1036 42.7 1101 57.3 1165.8 57.2C1230.7 57 1295.3 42 1327.7 34.5L1360 27L1360 0L1327.7 0C1295.3 0 1230.7 0 1165.8 0C1101 0 1036 0 971.2 0C906.3 0 841.7 0 777 0C712.3 0 647.7 0 583 0C518.3 0 453.7 0 388.8 0C324 0 259 0 194.2 0C129.3 0 64.7 0 32.3 0L0 0Z" fill="#000000"></path></svg>