<svg id="visual" viewBox="0 0 1360 768" width="1360" height="768" xmlns="http://www.w3.org/2000/svg" xmlns:xlink="http://www.w3.org/1999/xlink" version="1.1"><rect x="0" y="0" width="1360" height="768" fill="#000000"></rect><path d="M0 319L32.3 299.5C64.7 280 129.3 241 194.2 224.8C259 208.7 324 215.3 388.8 221C453.7 226.7 518.3 231.3 583 247.2C647.7 263 712.3 290 777 303.5C841.7 317 906.3 317 971.2 306.2C1036 295.3 1101 273.7 1165.8 264.2C1230.7 254.7 1295.3 257.3 1327.7 258.7L1360 260L1360 0L1327.7 0C1295.3 0 1230.7 0 1165.8 0C1101 0 1036 0 971.2 0C906.3 0 841.7 0 777 0C712.3 0 647.7 0 583 0C518.3 0 453.7 0 388.8 0C324 0 259 0 194.2 0C129.3 0 64.7 0 32.3 0L0 0Z" fill="#009473"></path><path d="M0 263L32.3 252.8C64.7 242.7 129.3 222.3 194.2 223.5C259 224.7 324 247.3 388.8 258C453.7 268.7 518.3 267.3 583 258.2C647.7 249 712.3 232 777 232.8C841.7 233.7 906.3 252.3 971.2 252C1036 251.7 1101 232.3 1165.8 220.5C1230.7 208.7 1295.3 204.3 1327.7 202.2L1360 200L1360 0L1327.7 0C1295.3 0 1230.7 0 1165.8 0C1101 0 1036 0 971.2 0C906.3 0 841.7 0 777 0C712.3 0 647.7 0 583 0C518.3 0 453.7 0 388.8 0C324 0 259 0 194.2 0C129.3 0 64.7 0 32.3 0L0 0Z" fill="#037758"></path><path d="M0 193L32.3 196.8C64.7 200.7 129.3 208.3 194.2 199C259 189.7 324 163.3 388.8 153.2C453.7 143 518.3 149 583 158.3C647.7 167.7 712.3 180.3 777 188.2C841.7 196 906.3 199 971.2 203.7C1036 208.3 1101 214.7 1165.8 211.5C1230.7 208.3 1295.3 195.7 1327.7 189.3L1360 183L1360 0L1327.7 0C1295.3 0 1230.7 0 1165.8 0C1101 0 1036 0 971.2 0C906.3 0 841.7 0 777 0C712.3 0 647.7 0 583 0C518.3 0 453.7 0 388.8 0C324 0 259 0 194.2 0C129.3 0 64.7 0 32.3 0L0 0Z" fill="#025b3f"></path><path d="M0 98L32.3 98.7C64.7 99.3 129.3 100.7 194.2 111.5C259 122.3 324 142.7 388.8 151.2C453.7 159.7 518.3 156.3 583 151C647.7 145.7 712.3 138.3 777 140.7C841.7 143 906.3 155 971.2 152.3C1036 149.7 1101 132.3 1165.8 122.3C1230.7 112.3 1295.3 109.7 1327.7 108.3L1360 107L1360 0L1327.7 0C1295.3 0 1230.7 0 1165.8 0C1101 0 1036 0 971.2 0C906.3 0 841.7 0 777 0C712.3 0 647.7 0 583 0C518.3 0 453.7 0 388.8 0C324 0 259 0 194.2 0C129.3 0 64.7 0 32.3 0L0 0Z" fill="#004027"></path><path d="M0 127L32.3 116.3C64.7 105.7 129.3 84.3 194.2 81.2C259 78 324 93 388.8 104C453.7 115 518.3 122 583 118.8C647.7 115.7 712.3 102.3 777 97.8C841.7 93.3 906.3 97.7 971.2 100.7C1036 103.7 1101 105.3 1165.8 105.5C1230.7 105.7 1295.3 104.3 1327.7 103.7L1360 103L1360 0L1327.7 0C1295.3 0 1230.7 0 1165.8 0C1101 0 1036 0 971.2 0C906.3 0 841.7 0 777 0C712.3 0 647.7 0 583 0C518.3 0 453.7 0 388.8 0C324 0 259 0 194.2 0C129.3 0 64.7 0 32.3 0L0 0Z" fill="#00270f"></path><path d="M0 62L32.3 59.3C64.7 56.7 129.3 51.3 194.2 47.3C259 43.3 324 40.7 388.8 43C453.7 45.3 518.3 52.7 583 51.7C647.7 50.7 712.3 41.3 777 36.7C841.7 32 906.3 32 971.2 35C1036 38 1101 44 1165.8 51.5C1230.7 59 1295.3 68 1327.7 72.5L1360 77L1360 0L1327.7 0C1295.3 0 1230.7 0 1165.8 0C1101 0 1036 0 971.2 0C906.3 0 841.7 0 777 0C712.3 0 647.7 0 583 0C518.3 0 453.7 0 388.8 0C324 0 259 0 194.2 0C129.3 0 64.7 0 32.3 0L0 0Z" fill="#000000"></path></svg>