<svg id="visual" viewBox="0 0 1360 768" width="1360" height="768" xmlns="http://www.w3.org/2000/svg" xmlns:xlink="http://www.w3.org/1999/xlink" version="1.1"><rect x="0" y="0" width="1360" height="768" fill="#000000"></rect><path d="M0 208L32.3 215.5C64.7 223 129.3 238 194.2 243.5C259 249 324 245 388.8 252.2C453.7 259.3 518.3 277.7 583 280C647.7 282.3 712.3 268.7 777 272.8C841.7 277 906.3 299 971.2 297.2C1036 295.3 1101 269.7 1165.8 251.2C1230.7 232.7 1295.3 221.3 1327.7 215.7L1360 210L1360 0L1327.7 0C1295.3 0 1230.7 0 1165.8 0C1101 0 1036 0 971.2 0C906.3 0 841.7 0 777 0C712.3 0 647.7 0 583 0C518.3 0 453.7 0 388.8 0C324 0 259 0 194.2 0C129.3 0 64.7 0 32.3 0L0 0Z" fill="#009473"></path><path d="M0 203L32.3 214C64.7 225 129.3 247 194.2 255.8C259 264.7 324 260.3 388.8 259.2C453.7 258 518.3 260 583 255.5C647.7 251 712.3 240 777 226.3C841.7 212.7 906.3 196.3 971.2 202.8C1036 209.3 1101 238.7 1165.8 246.3C1230.7 254 1295.3 240 1327.7 233L1360 226L1360 0L1327.7 0C1295.3 0 1230.7 0 1165.8 0C1101 0 1036 0 971.2 0C906.3 0 841.7 0 777 0C712.3 0 647.7 0 583 0C518.3 0 453.7 0 388.8 0C324 0 259 0 194.2 0C129.3 0 64.7 0 32.3 0L0 0Z" fill="#037758"></path><path d="M0 147L32.3 149.5C64.7 152 129.3 157 194.2 157.5C259 158 324 154 388.8 157.8C453.7 161.7 518.3 173.3 583 174.5C647.7 175.7 712.3 166.3 777 163.5C841.7 160.7 906.3 164.3 971.2 171.2C1036 178 1101 188 1165.8 182.3C1230.7 176.7 1295.3 155.3 1327.7 144.7L1360 134L1360 0L1327.7 0C1295.3 0 1230.7 0 1165.8 0C1101 0 1036 0 971.2 0C906.3 0 841.7 0 777 0C712.3 0 647.7 0 583 0C518.3 0 453.7 0 388.8 0C324 0 259 0 194.2 0C129.3 0 64.7 0 32.3 0L0 0Z" fill="#025b3f"></path><path d="M0 138L32.3 135.5C64.7 133 129.3 128 194.2 126.8C259 125.7 324 128.3 388.8 135.5C453.7 142.7 518.3 154.3 583 154C647.7 153.7 712.3 141.3 777 140.7C841.7 140 906.3 151 971.2 154.8C1036 158.7 1101 155.3 1165.8 154.8C1230.7 154.3 1295.3 156.7 1327.7 157.8L1360 159L1360 0L1327.7 0C1295.3 0 1230.7 0 1165.8 0C1101 0 1036 0 971.2 0C906.3 0 841.7 0 777 0C712.3 0 647.7 0 583 0C518.3 0 453.7 0 388.8 0C324 0 259 0 194.2 0C129.3 0 64.7 0 32.3 0L0 0Z" fill="#004027"></path><path d="M0 117L32.3 115.7C64.7 114.3 129.3 111.7 194.2 104C259 96.3 324 83.7 388.8 85C453.7 86.3 518.3 101.7 583 100.5C647.7 99.3 712.3 81.7 777 80.7C841.7 79.7 906.3 95.3 971.2 103.8C1036 112.3 1101 113.7 1165.8 109.3C1230.7 105 1295.3 95 1327.7 90L1360 85L1360 0L1327.7 0C1295.3 0 1230.7 0 1165.8 0C1101 0 1036 0 971.2 0C906.3 0 841.7 0 777 0C712.3 0 647.7 0 583 0C518.3 0 453.7 0 388.8 0C324 0 259 0 194.2 0C129.3 0 64.7 0 32.3 0L0 0Z" fill="#00270f"></path><path d="M0 73L32.3 65.8C64.7 58.7 129.3 44.3 194.2 45.3C259 46.3 324 62.7 388.8 66C453.7 69.3 518.3 59.7 583 56.7C647.7 53.7 712.3 57.3 777 54.8C841.7 52.3 906.3 43.7 971.2 38.3C1036 33 1101 31 1165.8 34.7C1230.7 38.3 1295.3 47.7 1327.7 52.3L1360 57L1360 0L1327.7 0C1295.3 0 1230.7 0 1165.8 0C1101 0 1036 0 971.2 0C906.3 0 841.7 0 777 0C712.3 0 647.7 0 583 0C518.3 0 453.7 0 388.8 0C324 0 259 0 194.2 0C129.3 0 64.7 0 32.3 0L0 0Z" fill="#000000"></path></svg>